<svg xmlns="http://www.w3.org/2000/svg" xmlns:xlink="http://www.w3.org/1999/xlink" version="1.1" x="0px" y="0px" viewBox="0 0 64 80" enable-background="new 0 0 64 64" xml:space="preserve"><g><g><g><path fill="#000000" d="M39.3,11.4c-0.2,0-0.4-0.1-0.5-0.2C37,9.4,34.6,8.4,32,8.4c-2.6,0-5,1-6.8,2.8c-0.3,0.3-0.8,0.3-1.1,0     c-0.3-0.3-0.3-0.8,0-1.1C26.2,8,29,6.8,32,6.8c3,0,5.8,1.2,7.9,3.3c0.3,0.3,0.3,0.8,0,1.1C39.7,11.3,39.5,11.4,39.3,11.4z"/><path fill="#000000" d="M36.9,13.8c-0.2,0-0.4-0.1-0.5-0.2c-1.2-1.2-2.7-1.8-4.4-1.8c-1.7,0-3.2,0.6-4.4,1.8     c-0.3,0.3-0.8,0.3-1.1,0c-0.3-0.3-0.3-0.8,0-1.1c1.5-1.5,3.4-2.3,5.5-2.3c2.1,0,4,0.8,5.5,2.3c0.3,0.3,0.3,0.8,0,1.1     C37.3,13.7,37.1,13.8,36.9,13.8z"/><path fill="#000000" d="M29.5,16.2c-0.2,0-0.4-0.1-0.5-0.2c-0.3-0.3-0.3-0.8,0-1.1c0.8-0.8,1.9-1.3,3.1-1.3     c1.2,0,2.3,0.5,3.1,1.3c0.3,0.3,0.3,0.8,0,1.1c-0.3,0.3-0.8,0.3-1.1,0c-0.5-0.5-1.2-0.8-2-0.8c-0.8,0-1.5,0.3-2,0.8     C29.8,16.1,29.6,16.2,29.5,16.2z"/></g><g><path fill="#000000" d="M11.4,24.7c0,0.2-0.1,0.4-0.2,0.5C9.4,27,8.4,29.4,8.4,32c0,2.6,1,5,2.8,6.8c0.3,0.3,0.3,0.8,0,1.1     c-0.3,0.3-0.8,0.3-1.1,0C8,37.8,6.8,35,6.8,32c0-3,1.2-5.8,3.3-7.9c0.3-0.3,0.8-0.3,1.1,0C11.3,24.3,11.4,24.5,11.4,24.7z"/><path fill="#000000" d="M13.8,27.1c0,0.2-0.1,0.4-0.2,0.5c-1.2,1.2-1.8,2.7-1.8,4.4c0,1.7,0.6,3.2,1.8,4.4c0.3,0.3,0.3,0.8,0,1.1     c-0.3,0.3-0.8,0.3-1.1,0C11,36,10.2,34.1,10.2,32c0-2.1,0.8-4,2.3-5.5c0.3-0.3,0.8-0.3,1.1,0C13.7,26.7,13.8,26.9,13.8,27.1z"/><path fill="#000000" d="M16.2,34.5c0,0.2-0.1,0.4-0.2,0.5c-0.3,0.3-0.8,0.3-1.1,0c-0.8-0.8-1.3-1.9-1.3-3.1     c0-1.2,0.5-2.3,1.3-3.1c0.3-0.3,0.8-0.3,1.1,0c0.3,0.3,0.3,0.8,0,1.1c-0.5,0.5-0.8,1.2-0.8,2c0,0.8,0.3,1.5,0.8,2     C16.1,34.2,16.2,34.4,16.2,34.5z"/></g><g><path fill="#000000" d="M24.7,52.6c0.2,0,0.4,0.1,0.5,0.2c1.8,1.8,4.2,2.8,6.8,2.8c2.6,0,5-1,6.8-2.8c0.3-0.3,0.8-0.3,1.1,0     c0.3,0.3,0.3,0.8,0,1.1C37.8,56,35,57.2,32,57.2c-3,0-5.8-1.2-7.9-3.3c-0.3-0.3-0.3-0.8,0-1.1C24.3,52.7,24.5,52.6,24.7,52.6z"/><path fill="#000000" d="M27.1,50.2c0.2,0,0.4,0.1,0.5,0.2c1.2,1.2,2.7,1.8,4.4,1.8c1.7,0,3.2-0.6,4.4-1.8c0.3-0.3,0.8-0.3,1.1,0     c0.3,0.3,0.3,0.8,0,1.1C36,53,34.1,53.8,32,53.8c-2.1,0-4-0.8-5.5-2.3c-0.3-0.3-0.3-0.8,0-1.1C26.7,50.3,26.9,50.2,27.1,50.2z"/><path fill="#000000" d="M34.5,47.8c0.2,0,0.4,0.1,0.5,0.2c0.3,0.3,0.3,0.8,0,1.1c-0.8,0.8-1.9,1.3-3.1,1.3     c-1.2,0-2.3-0.5-3.1-1.3c-0.3-0.3-0.3-0.8,0-1.1c0.3-0.3,0.8-0.3,1.1,0c0.5,0.5,1.2,0.8,2,0.8c0.8,0,1.5-0.3,2-0.8     C34.2,47.9,34.4,47.8,34.5,47.8z"/></g><g><path fill="#000000" d="M52.6,39.3c0-0.2,0.1-0.4,0.2-0.5c1.8-1.8,2.8-4.2,2.8-6.8c0-2.6-1-5-2.8-6.8c-0.3-0.3-0.3-0.8,0-1.1     c0.3-0.3,0.8-0.3,1.1,0c2.1,2.1,3.3,4.9,3.3,7.9c0,3-1.2,5.8-3.3,7.9c-0.3,0.3-0.8,0.3-1.1,0C52.7,39.7,52.6,39.5,52.6,39.3z"/><path fill="#000000" d="M50.2,36.9c0-0.2,0.1-0.4,0.2-0.5c1.2-1.2,1.8-2.7,1.8-4.4c0-1.7-0.6-3.2-1.8-4.4c-0.3-0.3-0.3-0.8,0-1.1     c0.3-0.3,0.8-0.3,1.1,0c1.5,1.5,2.3,3.4,2.3,5.5c0,2.1-0.8,4-2.3,5.5c-0.3,0.3-0.8,0.3-1.1,0C50.3,37.3,50.2,37.1,50.2,36.9z"/><path fill="#000000" d="M47.8,29.5c0-0.2,0.1-0.4,0.2-0.5c0.3-0.3,0.8-0.3,1.1,0c0.8,0.8,1.3,1.9,1.3,3.1c0,1.2-0.5,2.3-1.3,3.1     c-0.3,0.3-0.8,0.3-1.1,0c-0.3-0.3-0.3-0.8,0-1.1c0.5-0.5,0.8-1.2,0.8-2c0-0.8-0.3-1.5-0.8-2C47.9,29.8,47.8,29.6,47.8,29.5z"/></g><path fill="#000000" d="M41.1,22.9c-2.4-2.4-5.7-3.8-9.1-3.8c-3.4,0-6.7,1.3-9.1,3.8c-2.4,2.4-3.8,5.7-3.8,9.1    c0,3.4,1.3,6.7,3.8,9.1c2.4,2.4,5.7,3.8,9.1,3.8c1.4,0,2.8-0.2,4.1-0.7c1.9-0.6,3.6-1.7,5-3.1c2.4-2.4,3.8-5.7,3.8-9.1    C44.9,28.6,43.5,25.3,41.1,22.9z M25,25c1.1-1.1,2.4-1.9,3.9-2.4c1-0.3,2-0.5,3.1-0.5c2.6,0,5.1,1,7,2.9c0.7,0.7,1.3,1.5,1.8,2.4    l-17.5,0C23.7,26.5,24.3,25.7,25,25z M29.2,31.7c0-1.6,1.3-2.8,2.8-2.8c1.6,0,2.8,1.3,2.8,2.8c0,1.6-1.3,2.8-2.8,2.8    C30.4,34.5,29.2,33.3,29.2,31.7z M25,39c-1.7-1.7-2.7-3.9-2.9-6.2l3.3,0c2.5,0,4.5,2,4.5,4.5l0,4.4C28.1,41.3,26.4,40.4,25,39z     M39,39c-1.4,1.4-3,2.3-4.9,2.7l0-4.4c0-2.5,2-4.5,4.5-4.5l3.3,0C41.7,35.1,40.7,37.3,39,39z"/></g></g><text x="0" y="79" fill="#000000" font-size="5px" font-weight="bold" font-family="'Helvetica Neue', Helvetica, Arial-Unicode, Arial, Sans-serif">Created by Berkah Icon</text><text x="0" y="84" fill="#000000" font-size="5px" font-weight="bold" font-family="'Helvetica Neue', Helvetica, Arial-Unicode, Arial, Sans-serif">from the Noun Project</text></svg>