<?xml version="1.0" encoding="UTF-8"?><svg version="1.1" xmlns="http://www.w3.org/2000/svg" xmlns:xlink="http://www.w3.org/1999/xlink" viewBox="0 0 1200 800" width="1200" height="800" x="0px" y="0px">
              
              <!-- ITEM 0 -->
<g transform="translate(405.0 247.0) scale(0.19527975304015072 0.19531278574553157) rotate(0.0 1013.93 683.519)">
<g transform="translate(-0.0 -0.0)">

<g>
	<path style="fill:#FFB400;" d="M1103.745,324.18H670.441V197.354c0-27.56,22.341-49.901,49.901-49.901h333.502   c27.56,0,49.901,22.341,49.901,49.901V324.18z"/>
	<path style="fill:#FFB400;" d="M1571.569,324.18h-433.304V197.354c0-27.56,22.341-49.901,49.901-49.901h333.502   c27.56,0,49.901,22.341,49.901,49.901V324.18z"/>
	<path style="fill:#FFB400;" d="M1013.93,1367.038c-260.234,0-524.133-10.392-784.365-30.888   c-43.389-3.599-87.227-23.792-123.521-56.868c-36.56-33.316-60.632-75.396-67.782-118.49l-0.018-0.108   C12.867,1002.379,0,841.837,0,683.519s12.867-318.86,38.243-477.166l0.018-0.108c7.15-43.093,31.223-85.173,67.782-118.489   c36.294-33.074,80.132-53.268,123.438-56.861C489.797,10.392,753.695,0,1013.93,0s524.134,10.392,784.366,30.888   c43.39,3.6,87.228,23.794,123.521,56.87c36.558,33.315,60.63,75.395,67.782,118.487l0.018,0.109   c25.376,158.305,38.243,318.847,38.243,477.166s-12.867,318.86-38.243,477.166l-0.018,0.108   c-7.149,43.093-31.222,85.174-67.782,118.491c-36.295,33.074-80.132,53.267-123.438,56.861l-0.084,0.006   C1538.063,1356.646,1274.164,1367.038,1013.93,1367.038z M77.729,1154.296c11.807,70.975,82.801,135.991,155.059,141.985   c259.118,20.408,520.146,30.615,781.12,30.615c261.006,0,522.007-10.207,781.199-30.618   c72.242-6.016,143.213-71.011,155.021-141.966c50.069-312.385,50.074-629.168,0.005-941.554   c-11.802-70.979-82.802-136.005-155.061-142c-259.118-20.408-520.146-30.615-781.12-30.615   c-261.038,0-522.024,10.205-781.247,30.621c-72.174,5.99-143.169,71.005-154.976,141.978   C27.66,525.128,27.66,841.911,77.729,1154.296z"/>
	<path style="fill:#00AEE0;" d="M1907.564,421.264c-9.388-57.607-57.585-100.891-115.85-104.348   c-370.847-22.004-741.695-28.247-1112.542-18.775c-25.409,0.649-46.356-19.767-46.356-45.184v-58.726   c0-26.563-21.533-48.096-48.096-48.096H321.364c-77.853,0-146.325,51.339-168.306,126.025   c-5.152,17.506-9.993,34.936-13.943,50.872c-59.848,271.631-54.858,544.374,9.108,818.18   c10.833,45.578,57.181,84.217,102.391,86.953c508.877,29.632,1017.754,29.632,1526.632,0   c45.211-2.735,91.557-41.376,102.391-86.953C1935.895,900.396,1946.534,660.402,1907.564,421.264z"/>
	<g>
		<g id="Layer_23cNQLXmVay5v6Su_4zXIV_1_-i0">
			<g id="cross_shape_2_copy_33cNQLXmVay5v6Su_4zXIV_1_-i0">
				<path style="fill:#10294C;" d="M1763.375,122.279c-12.298-2.741-37.131,34.597-36.284,39.663      c0.847,5.067,28.721,21.97,27.036,28.724c-1.685,6.754-26.161,23.626-25.736,29.115s28.729,35.48,36.751,36.751      c8.022,1.271,23.203-28.272,27.425-27.425c4.222,0.847,24.083,30.833,31.68,28.305c7.598-2.529,38.822-30.374,37.13-37.13      c-1.693-6.756-32.101-26.194-29.993-29.993c2.109-3.798,29.537-26.158,29.112-30.802s-29.573-34.636-35.484-35.484      c-5.911-0.848-26.581,28.27-32.07,27C1787.455,149.735,1770.975,123.972,1763.375,122.279z"/>
			</g>
		</g>
	</g>
</g>

</g>
</g>

<!-- ITEM 1 -->
<g transform="translate(571.0 350.0) scale(1.0912624261902983 1.0928381962864722) rotate(0.0 33.4475 47.125)">
<g transform="translate(-0.0 -0.0)">
<title>fingerprint</title><g id="Layer_2-i1" data-name="Layer 2"><g id="fingerprint-i1"><path d="M3.379,16.05a2.485,2.485,0,0,0,.8.1,2.518,2.518,0,0,0,2-.9,23.629,23.629,0,0,1,11.4-7.4,3.092,3.092,0,0,0,1.7-1.5,4.046,4.046,0,0,0-.1-3.4,4.651,4.651,0,0,0-3-2.8,2.208,2.208,0,0,0-1.6,0,28.965,28.965,0,0,0-13.8,9c-1.2,1.4-1,3.7.5,5.4A5.106,5.106,0,0,0,3.379,16.05Z" fill="#ffffff"/><path d="M14.079,17.65a4.484,4.484,0,0,0,.4,3.4,4.721,4.721,0,0,0,2.7,2.3,2.485,2.485,0,0,0,.8.1,2.663,2.663,0,0,0,1.2-.3,19.023,19.023,0,0,1,6.7-1.8,2.654,2.654,0,0,0,1.9-1.1,3.948,3.948,0,0,0,.4-3.2,4.688,4.688,0,0,0-3.1-3.3,3.75,3.75,0,0,0-1.1-.1,23.383,23.383,0,0,0-8.6,2.3A4.524,4.524,0,0,0,14.079,17.65Z" fill="#ffffff"/><path d="M65.779,23.95l-1.2-1.5a45.746,45.746,0,0,0-2.9-3.6,56.633,56.633,0,0,0-23-16.6,35.8,35.8,0,0,0-3.5-1.1,48.16,48.16,0,0,0-5.2-1.1,2.723,2.723,0,0,0-2.4.9,3.522,3.522,0,0,0-.7,2.8,4.865,4.865,0,0,0,3.3,4.1c.1,0,.3.1.4.1a34.348,34.348,0,0,1,4.4.9c.9.3,1.9.6,2.9.9,7.3,2.7,13.7,7.3,19.5,14,.8.9,1.5,1.9,2.4,3,.4.6.9,1.1,1.3,1.7a5.028,5.028,0,0,0,2.2,1.6,2.485,2.485,0,0,0,.8.1,2.732,2.732,0,0,0,1.9-.8C67.279,28.05,67.179,25.75,65.779,23.95Z" fill="#ffffff"/><path d="M63.579,57.85v-1.1a42.837,42.837,0,0,0-3.2-15.4,51.078,51.078,0,0,0-8.1-13.7,42.107,42.107,0,0,0-11.7-9.7,9.143,9.143,0,0,0-1.4-.7,1.421,1.421,0,0,0-.6-.2,2.2,2.2,0,0,0-.8-.1,2.734,2.734,0,0,0-2.7,2.6,5,5,0,0,0,2.7,4.9c.3.2.6.3.9.5a33.31,33.31,0,0,1,9.2,7.5,38.6,38.6,0,0,1,6.4,10.9,35.294,35.294,0,0,1,2.5,12.1v.7l.1,3.6a12.75,12.75,0,0,0,.1,2,4.85,4.85,0,0,0,3.3,4.4,2.2,2.2,0,0,0,.8.1,2.732,2.732,0,0,0,1.9-.8,3.069,3.069,0,0,0,.8-2.4,12.1,12.1,0,0,0-.1-1.9Z" fill="#ffffff"/><path d="M35.579,54.65a17.7,17.7,0,0,0-.1-2.3l-.1-2.2a4.507,4.507,0,0,0-3.1-4.2,2.745,2.745,0,0,0-2.6.6,2.648,2.648,0,0,0-.8,2.2v2.2a16.2,16.2,0,0,0,.1,2.2c0,1.4.1,3.3,0,4.7-.2,5.6-1.5,10-4.1,13.4a43.237,43.237,0,0,1-4.5,5c-.7.7-1.5,1.5-2.2,2.3l-.5.5a11.3,11.3,0,0,0-1.1,1.1,3.862,3.862,0,0,0,.5,5,4.069,4.069,0,0,0,1.9,1.3,2.2,2.2,0,0,0,.8.1,2.463,2.463,0,0,0,1.9-.9,2.336,2.336,0,0,1,.7-.7,5.716,5.716,0,0,0,.7-.8l2.1-2.1a52.692,52.692,0,0,0,5-5.6c3.3-4.3,5-10,5.2-17A24.732,24.732,0,0,0,35.579,54.65Z" fill="#ffffff"/><path d="M10.279,47.55v-.2c0-.8-.1-1.5-.1-2.3l-.1-3.3c-.1-4.8.7-8.8,2.6-11.9a4.423,4.423,0,0,0-1.2-5.3,4.784,4.784,0,0,0-1.7-1,2.583,2.583,0,0,0-3.1,1.2c-2.4,4.2-3.5,9.4-3.4,15.6,0,1.1,0,2.1.1,3.2a16.95,16.95,0,0,0,.1,2.3v.1a3.4,3.4,0,0,1-.2,1.4,1.8,1.8,0,0,1-.6.9l-.6.6-.6.6c-1.4,1.1-1.5,3.4-.2,5.3a4.3,4.3,0,0,0,2.4,1.8,2.2,2.2,0,0,0,.8.1,2.716,2.716,0,0,0,1.7-.6,13.576,13.576,0,0,0,1.2-1.2l.3-.3a8.251,8.251,0,0,0,2-3.2A7.629,7.629,0,0,0,10.279,47.55Z" fill="#ffffff"/><path d="M49.279,52.35a22.74,22.74,0,0,0-1.6-7.3,27.447,27.447,0,0,0-6-9.4,19.692,19.692,0,0,0-8.9-5.5l-.7-.2c-4.4-1-8.5-.1-11.4,2.6s-4.4,6.9-4.4,11.8v2.5c0,1.7.1,3.4,0,4.9a14.234,14.234,0,0,1-.8,4.5,11.258,11.258,0,0,1-2.1,3.5c-1,1.1-2,2.1-3.1,3.3l-.8.8c-1.2,1.2-1.1,3.5.2,5.1a4.535,4.535,0,0,0,2.1,1.5,2.747,2.747,0,0,0,2.6-.6l.7-.7c1.1-1.1,2.3-2.3,3.4-3.5a17.077,17.077,0,0,0,3.2-5.3,19.332,19.332,0,0,0,1.2-6.7c.1-1.8,0-3.6,0-5.3v-2.4c0-3.1.9-5.6,2.6-7.1,1.7-1.6,3.9-2.1,6.7-1.4l.4.1a13.548,13.548,0,0,1,6.9,5.1,23.7,23.7,0,0,1,2.3,4.1,13.385,13.385,0,0,1,1,4.4c.1,1.4.1,2.7.1,4.1v4.1c0,7.8-1.5,14.5-4.8,20.4a32.873,32.873,0,0,1-6.1,7.8,3.932,3.932,0,0,0,.1,5.1,3.821,3.821,0,0,0,2.2,1.5,2.2,2.2,0,0,0,.8.1,2.41,2.41,0,0,0,1.8-.7,39.161,39.161,0,0,0,7.1-9.1c3.8-6.8,5.6-14.8,5.6-23.7,0-1.4,0-2.8-.1-4.3C49.379,55.25,49.379,53.85,49.279,52.35Z" fill="#ffffff"/></g></g>
</g>
</g>

<!-- ITEM 2 -->
<g transform="translate(666.0 171.0) scale(0.11806482036437582 0.1181245267196115) rotate(0.0 719.9435 639.1559999999998)">
<g transform="translate(-0.0 -0.0)">

<g>
	<path style="fill:#F04E23;" d="M679.467,795.263c-45.563,0-82.5-36.937-82.5-82.5v-331.78C596.967,261.89,500.077,165,380.983,165   S165,261.89,165,380.983c0,45.563-36.937,82.5-82.5,82.5S0,426.546,0,380.983c0-51.396,10.085-101.298,29.974-148.321   c19.192-45.377,46.651-86.112,81.614-121.075c34.962-34.962,75.697-62.42,121.074-81.614C279.685,10.084,329.587,0,380.983,0   s101.299,10.084,148.321,29.973c45.377,19.193,86.112,46.652,121.074,81.614c34.963,34.962,62.422,75.698,81.614,121.075   c19.889,47.023,29.974,96.925,29.974,148.321v331.78C761.967,758.326,725.03,795.263,679.467,795.263z"/>
	<path style="fill:#F04E23;" d="M977.951,1278.3L977.951,1278.3c-114.271,1.022-224.898-62.507-313.41-148.094   c-87.317-86.678-152.517-195.415-148.336-310.006c1.885-77.507,9.05-155.013,21.494-232.52   c9.768-57.241,67.567-112.954,124.733-121.231c210.346-28.467,420.693-28.467,631.039,0   c57.164,8.277,114.963,63.99,124.733,121.231c12.445,77.507,19.609,155.013,21.494,232.52   c4.181,114.591-61.019,223.328-148.336,310.006C1202.849,1215.794,1092.222,1279.323,977.951,1278.3z"/>
	<path style="fill:#04294F;" d="M1057.45,719.308c-25.322-35.317-79.1-46.198-116.16-23.504   c-37.06,22.694-51.812,75.542-31.865,114.15c6.798,13.157,17.047,24.825,20.453,39.237c9.965,42.167-42.198,83.005-27.148,123.635   c5.746,15.513,20.559,26.258,36.325,31.27c15.766,5.012,32.608,5.141,49.152,5.224c27.065,0.137,59.162-2.412,72.963-25.696   c9.627-16.242,6.274-37.121-0.832-54.613c-15.24-37.517-35.228-64.107-10.323-100.814   C1072.565,794.962,1083.382,755.474,1057.45,719.308z"/>
	<path style="fill:#FFB400;" d="M1025.702,998.702c9.627-16.242,6.274-37.121-0.832-54.613   c-15.24-37.517-35.228-64.107-10.323-100.814c22.55-33.236,33.367-72.724,7.436-108.89c-19.229-26.819-54.865-39.528-87.131-34.162   c2.065-1.574,4.209-3.054,6.438-4.419c37.06-22.694,90.838-11.813,116.16,23.504c25.931,36.167,15.114,75.654-7.436,108.89   c-24.905,36.707-4.918,63.297,10.323,100.814c7.106,17.492,10.458,38.371,0.832,54.613c-8.775,14.804-24.949,21.22-42.521,23.899   C1021.33,1004.974,1023.711,1002.06,1025.702,998.702z"/>
	<path style="fill:#FFB400;" d="M380.984,44.562c-0.097,1.42-1.757,2.745-4.753,3.972c-1.498,0.613-3.33,1.202-5.47,1.764   c-1.07,0.286-2.217,0.544-3.438,0.833c-1.222,0.339-2.518,0.677-3.885,1.011c-2.734,0.676-5.753,1.31-9.03,1.983   c-3.272,0.836-6.805,1.672-10.577,2.503c-1.89,0.362-3.82,0.976-5.816,1.483c-1.989,0.515-4.04,1.045-6.152,1.592   c-2.114,0.475-4.25,1.203-6.45,1.848c-2.194,0.645-4.444,1.307-6.75,1.986c-1.156,0.302-2.3,0.744-3.466,1.134   c-1.163,0.396-2.34,0.797-3.529,1.202c-1.188,0.398-2.388,0.8-3.602,1.207c-1.21,0.416-2.445,0.769-3.659,1.274   c-2.439,0.932-4.927,1.884-7.462,2.853c-1.263,0.489-2.551,0.93-3.825,1.462c-1.269,0.546-2.55,1.097-3.841,1.652   c-2.579,1.097-5.202,2.213-7.867,3.347c-2.621,1.24-5.284,2.5-7.987,3.778c-1.345,0.65-2.726,1.228-4.069,1.94   c-1.345,0.702-2.7,1.408-4.064,2.119c-1.365,0.705-2.738,1.414-4.121,2.128c-1.382,0.713-2.785,1.4-4.146,2.211   c-2.748,1.552-5.529,3.124-8.343,4.714c-1.421,0.761-2.801,1.632-4.193,2.494c-1.395,0.856-2.797,1.717-4.207,2.582   c-1.411,0.859-2.831,1.723-4.257,2.592c-1.411,0.896-2.8,1.854-4.213,2.78c-2.806,1.89-5.696,3.694-8.521,5.672   c-11.355,7.823-22.702,16.628-33.934,25.963c-22.393,19.057-42.021,39.261-58.085,58.908c-4.038,4.905-7.802,9.811-11.421,14.614   c-3.548,4.843-6.977,9.574-10.097,14.266c-3.184,4.661-6.068,9.272-8.844,13.723c-1.324,2.252-2.681,4.441-3.935,6.618   c-1.222,2.188-2.518,4.298-3.639,6.418c-9.314,16.831-15.55,31.295-20.083,41.5c-4.551,10.195-7.743,16.117-10.641,15.798   c-2.753-0.294-4.972-6.926-5.084-18.994c-0.13-12.028,2.252-29.463,9.064-49.899c0.809-2.573,1.806-5.127,2.757-7.783   c0.981-2.64,2.082-5.29,3.176-8.019c2.308-5.387,4.814-10.964,7.697-16.577c2.823-5.654,6.028-11.333,9.443-17.12   c3.478-5.739,7.188-11.573,11.243-17.368c16.164-23.245,37.006-46.441,61.779-67.52c12.566-10.463,25.325-19.961,38.342-28.226   c3.237-2.086,6.565-3.988,9.802-5.945c1.631-0.961,3.234-1.945,4.869-2.867c1.655-0.89,3.301-1.775,4.939-2.656   c1.639-0.875,3.27-1.745,4.892-2.61c1.621-0.865,3.228-1.732,4.889-2.49c3.292-1.556,6.547-3.094,9.761-4.614   c1.593-0.781,3.242-1.438,4.865-2.114c1.625-0.67,3.24-1.336,4.844-1.998c1.604-0.655,3.198-1.306,4.781-1.952   c1.579-0.65,3.211-1.166,4.796-1.744c3.186-1.11,6.326-2.203,9.417-3.28c3.133-0.968,6.245-1.84,9.287-2.72   c1.523-0.432,3.032-0.861,4.528-1.286c1.502-0.405,3.023-0.715,4.512-1.067c2.983-0.667,5.911-1.321,8.782-1.963   c1.424-0.345,2.879-0.536,4.299-0.783c1.423-0.231,2.831-0.459,4.224-0.685c1.391-0.219,2.767-0.435,4.127-0.649   c1.362-0.2,2.694-0.448,4.044-0.552c2.681-0.253,5.297-0.5,7.848-0.741c2.549-0.212,5.01-0.488,7.446-0.496   c2.419-0.049,4.77-0.096,7.049-0.142c2.277-0.009,4.463-0.108,6.602,0.057c4.265,0.224,8.212,0.497,11.824,0.814   c3.623,0.48,6.913,1.043,9.851,1.599c1.469,0.281,2.851,0.569,4.144,0.861c1.292,0.343,2.495,0.724,3.607,1.085   c2.225,0.732,4.086,1.464,5.573,2.193C379.605,41.695,381.08,43.143,380.984,44.562z"/>
	<path style="fill:#FFB400;" d="M666.914,1040.847c-0.915,1.089-2.904,1.177-5.994,0.211c-1.546-0.483-3.242-1.322-5.247-2.39   c-1.012-0.529-1.982-1.194-3.064-1.893c-1.052-0.716-2.233-1.464-3.339-2.352c-9.209-6.9-20.412-19.09-31.363-35.595   c-5.491-8.248-10.995-17.531-16.333-27.737c-5.361-10.276-10.555-21.371-15.474-33.331c-9.847-23.88-18.64-51.152-24.514-80.593   c-3.076-14.711-5.037-29.441-6.227-43.642c-0.661-7.105-0.883-14.118-1.146-20.969c-0.047-6.862-0.142-13.571,0.165-20.107   c0.138-6.539,0.697-12.888,1.146-19.048c0.285-3.075,0.644-6.096,0.971-9.07c0.17-1.485,0.339-2.959,0.507-4.42   c0.177-1.46,0.414-2.899,0.619-4.329c0.436-2.854,0.864-5.659,1.285-8.413c0.435-2.749,0.993-5.423,1.484-8.051   c0.519-2.623,0.988-5.197,1.547-7.695c0.584-2.49,1.155-4.926,1.712-7.305c4.623-18.983,10.015-33.798,14.74-43.702   c4.813-9.885,8.87-14.902,11.611-14.213c2.779,0.698,3.987,7.021,4.044,17.734c0.143,10.728-0.766,25.876-1.54,44.312   c-0.098,2.3-0.199,4.656-0.302,7.064c-0.1,2.404-0.12,4.862-0.202,7.362c-0.054,2.502-0.188,5.046-0.211,7.64   c-0.029,2.589-0.058,5.226-0.088,7.909c-0.012,1.339-0.06,2.689-0.051,4.049c0.013,1.36,0.026,2.73,0.04,4.112   c0.018,2.757,0.036,5.558,0.055,8.401c0.205,5.676,0.236,11.507,0.616,17.464c0.211,5.963,0.753,12.048,1.168,18.26   c0.631,6.199,1.142,12.528,2.008,18.939c1.608,12.842,3.621,26.031,6.454,39.554c5.411,27.142,12.462,52.664,19.78,75.709   c3.645,11.518,7.395,22.439,11.033,32.484c3.675,10.111,7.315,19.418,10.77,27.819c6.903,16.826,13.293,29.862,17.885,38.975   C665.995,1033.108,668.775,1038.561,666.914,1040.847z"/>
	<path style="fill:#FFB400;" d="M1363.793,647.904c-1.777,0.073-3.554-0.462-5.303-1.459c-0.875-0.499-1.742-1.113-2.598-1.828   c-0.838-0.715-1.718-1.529-2.616-2.43c-3.443-3.618-7.132-8.569-11.193-14.349c-3.965-5.615-8.685-12.3-13.927-19.724   c-2.671-3.632-5.474-7.445-8.381-11.397c-2.986-3.923-6.078-7.986-9.245-12.146c-3.276-4.096-6.475-8.094-9.564-11.956   c-3.143-3.82-6.175-7.504-9.064-11.014c-5.882-6.97-11.178-13.246-15.627-18.517c-4.52-5.382-8.301-10.069-10.927-14.236   c-1.291-2.174-2.308-4.071-2.877-6.017c-0.571-1.922-0.708-3.776-0.254-5.496s1.484-3.224,3.137-4.481   c1.64-1.236,3.962-2.328,6.776-2.883c5.699-1.284,13.69-0.876,22.744,1.78c9.025,2.657,19.002,7.56,28.733,14.507   c4.829,3.496,9.635,7.472,14.258,11.906c4.604,4.467,9.009,9.295,13.284,14.7c4.199,5.454,7.833,10.916,11.054,16.498   c3.19,5.593,5.872,11.278,8.081,16.854c4.32,11.245,6.58,22.158,6.812,31.537c0.247,9.389-1.295,17.071-3.884,22.224   c-0.61,1.285-1.288,2.418-2.046,3.399c-0.741,0.978-1.512,1.797-2.308,2.456C1367.265,647.15,1365.57,647.832,1363.793,647.904z"/>
	<path style="fill:#FFB400;" d="M738.511,471.97c-0.083,5.739-7.391,10.643-18.348,15.103c-5.499,2.223-11.943,4.398-19.098,6.479   c-7.145,2.094-15.069,4.15-23.454,6.023c-8.36,1.905-16.502,3.467-23.939,4.603c-7.449,1.142-14.24,1.877-20.124,2.122   c-5.886,0.243-10.855,0.022-14.746-0.842c-3.89-0.879-6.738-2.385-8.102-4.907c-1.344-2.482-0.972-5.81,1.168-9.563   c2.127-3.761,5.999-7.915,11.28-11.918c5.279-4.008,11.952-7.892,19.634-11.281c7.697-3.389,16.348-6.283,25.762-8.428   c9.406-2.103,18.566-3.216,27.052-3.398c8.48-0.167,16.197,0.57,22.62,2.025c6.427,1.448,11.55,3.53,15.02,5.969   C736.71,466.392,738.539,469.132,738.511,471.97z"/>
</g>

</g>
</g>

<!-- ITEM 3 -->
<g transform="translate(302.0 370.0) scale(0.19850956869772357 0.19918518504856986) rotate(0.0 279.5835 271.1045)">
<g transform="translate(-0.0 -0.0)">

<g>
	<path style="fill:#FDB813;" d="M546.451,291.736l-42.894-18.171c-8.525-3.612-14.341-11.6-15.294-20.809   c-0.962-9.292-2.592-18.627-4.93-27.953c-2.339-9.325-5.307-18.325-8.844-26.971c-3.505-8.57-2.147-18.357,3.665-25.564   l29.244-36.262c6.606-8.192,6.07-20.023-1.251-27.583l-43.649-45.077c-2.491-2.573-5.507-4.356-8.727-5.366   c-0.181-0.073-0.373-0.137-0.58-0.189c-0.052-0.013-0.109-0.027-0.162-0.04c-0.244-0.067-0.491-0.123-0.737-0.181   c-6.84-1.646-20.896-4.29-26.97-4.381l0.868,14.645l-28.417,21.446c-7.397,5.582-17.236,6.624-25.691,2.83   c-17.18-7.707-35.507-13.002-54.456-15.569c-9.164-1.241-16.946-7.323-20.277-15.95l-16.77-43.427   c-2.262-5.858-6.92-10.16-12.477-12.134h0C263.155,2.492,247.736,0.458,240.845,0l-11.101,9.645c0,0-0.207,0.613-0.517,1.542   l-34.026,8.533c-10.208,2.56-16.905,12.327-15.615,22.771l5.706,46.201c1.134,9.178-2.857,18.212-10.351,23.631   c-15.496,11.205-29.156,24.521-40.666,39.423c-5.665,7.335-14.83,11.059-23.987,9.628l-46.042-7.197   c-10.397-1.625-20.375,4.755-23.262,14.875l-17.213,60.34c-2.887,10.12,2.223,20.804,11.913,24.909l42.894,18.171   c8.525,3.612,14.341,11.6,15.294,20.809c0.962,9.292,2.592,18.627,4.93,27.953c2.339,9.325,5.307,18.325,8.844,26.971   c3.505,8.57,2.147,18.357-3.665,25.564l-29.244,36.262c-6.606,8.191-6.07,20.022,1.251,27.583l33.896,35.005v12.511   c5.779,0.886,16.133,3.406,23.055,3.835c0.062,0.005,0.124,0.007,0.187,0.011c0.171,0.01,0.351,0.025,0.518,0.032   c0.119,0.005,0.233-0.001,0.349-0.003c4.599,0.138,9.256-1.22,13.173-4.176l37.197-28.072c7.397-5.583,17.236-6.624,25.691-2.83   c17.18,7.707,35.507,13.002,54.457,15.569c9.164,1.242,16.946,7.323,20.277,15.95l14.695,38.052c-1.14,0-1.9,0-1.983,0   c-0.383,0-12.517,10.288-7.305,13.351c5.213,3.062,24.531,5.152,29.89,5.362c0,0,0.003-0.01,0.008-0.024   c1.969,0.086,3.979-0.104,5.978-0.606l60.862-15.263c10.208-2.56,16.905-12.328,15.615-22.772l-5.706-46.201   c-1.134-9.178,2.857-18.212,10.351-23.631c15.496-11.206,29.156-24.521,40.666-39.423c5.665-7.335,14.83-11.059,23.987-9.628   l46.042,7.197c10.397,1.625,20.375-4.755,23.262-14.875l17.213-60.34C561.25,306.525,556.141,295.841,546.451,291.736z    M268.099,314.365c-24.949,0-45.174-20.225-45.174-45.174s20.225-45.174,45.174-45.174c24.949,0,45.174,20.225,45.174,45.174   S293.048,314.365,268.099,314.365z"/>
	<path style="fill:#00AEE0;" d="M523.482,287.908l-42.894-18.171c-8.525-3.612-14.341-11.6-15.294-20.809   c-0.962-9.292-2.592-18.627-4.93-27.953c-2.339-9.325-5.307-18.325-8.844-26.971c-3.505-8.57-2.147-18.357,3.665-25.564   l29.244-36.262c6.606-8.192,6.07-20.023-1.251-27.583l-43.649-45.077c-7.321-7.56-19.128-8.477-27.528-2.138l-37.197,28.072   c-7.397,5.582-17.236,6.624-25.691,2.83c-17.18-7.707-35.507-13.002-54.456-15.569c-9.164-1.241-16.946-7.323-20.277-15.95   l-16.77-43.427C253.817,3.52,243.302-1.93,233.095,0.629l-60.862,15.263c-10.208,2.56-16.905,12.327-15.615,22.771l5.706,46.201   c1.134,9.178-2.857,18.212-10.351,23.631c-15.496,11.205-29.156,24.521-40.666,39.423c-5.665,7.335-14.83,11.059-23.987,9.628   l-46.042-7.197c-10.397-1.625-20.375,4.755-23.262,14.875l-17.213,60.34c-2.887,10.12,2.223,20.804,11.913,24.909l42.894,18.171   c8.525,3.612,14.341,11.6,15.294,20.809c0.962,9.292,2.592,18.627,4.93,27.953c2.339,9.325,5.307,18.325,8.844,26.971   c3.505,8.57,2.147,18.357-3.665,25.564l-29.244,36.262c-6.606,8.191-6.07,20.022,1.251,27.582l43.649,45.077   c7.321,7.56,19.128,8.477,27.528,2.138l37.197-28.072c7.397-5.583,17.236-6.624,25.691-2.83   c17.18,7.707,35.507,13.002,54.457,15.569c9.164,1.241,16.946,7.323,20.277,15.95l16.77,43.427   c3.791,9.817,14.305,15.268,24.513,12.708l60.862-15.263c10.208-2.56,16.905-12.328,15.615-22.772l-5.706-46.201   c-1.134-9.178,2.857-18.212,10.351-23.631c15.496-11.206,29.156-24.521,40.666-39.423c5.665-7.335,14.83-11.059,23.987-9.628   l46.042,7.197c10.397,1.625,20.375-4.755,23.262-14.875l17.213-60.34C538.282,302.697,533.172,292.013,523.482,287.908z    M268.099,314.365c-24.949,0-45.174-20.225-45.174-45.174s20.225-45.174,45.174-45.174c24.949,0,45.174,20.225,45.174,45.174   S293.048,314.365,268.099,314.365z"/>
	<path style="fill:#FFB400;" d="M269.739,439.335c-3.313,0-6.642-0.095-9.991-0.289c-94.292-5.449-166.57-86.595-161.121-180.887   c5.449-94.292,86.6-166.573,180.887-161.121c45.677,2.64,87.591,22.909,118.023,57.074c30.432,34.165,45.738,78.136,43.098,123.813   C435.379,368.867,359.704,439.335,269.739,439.335z M269.527,104.749c-85.77,0-157.903,67.171-162.914,153.872   c-5.194,89.888,63.708,167.244,153.597,172.438c3.188,0.184,6.371,0.275,9.524,0.275c85.771,0.006,157.903-67.171,162.914-153.872   c2.516-43.543-12.075-85.46-41.085-118.03c-29.01-32.569-68.968-51.892-112.511-54.409   C275.864,104.84,272.681,104.749,269.527,104.749z"/>
</g>

</g>
</g>

<!-- ITEM 4 -->
<g transform="translate(370.0 445.0) scale(0.158767160398934 0.16027256676515675) rotate(0.0 396.8075 386.841)">
<g transform="translate(-0.0 -0.0)">

<g>
	<path style="fill:#F04E23;" d="M766.151,340.969l-68.67-12.535c-7.84-1.431-14.136-7.236-16.277-14.913   c-4.846-17.374-11.268-34.124-19.114-50.075c-3.686-7.495-2.447-16.479,3.062-22.757l42.258-48.151   c11.149-12.703,11.078-31.724-0.163-44.345l-35.781-40.17c-3.9-4.379-8.721-7.507-13.935-9.329   c-0.004-0.002-0.008-0.004-0.012-0.006c-3.938-1.667-25.412-6.269-33.252-6.697c0,0-7.866,15.341-7.799,15.474   c0.016,0.032,0.439,0.873,1.07,2.128l-45.21,31.252c-6.717,4.644-15.515,4.883-22.523,0.69   c-16.086-9.623-33.201-17.75-51.163-24.173c-7.819-2.796-13.262-9.926-13.802-18.213l-3.899-59.819   c-0.849-13.027-9.1-23.981-20.586-28.744c-0.013-0.005-0.023-0.012-0.036-0.017c-0.011-0.004-0.023-0.008-0.033-0.013   c-1.077-0.444-2.18-0.836-3.31-1.167c-8.087-2.493-19.928-4.034-27.747-5.64l-2.007,3.054l-31.459-1.818   c-16.873-0.975-31.827,10.781-34.862,27.408l-10.765,58.975c-1.486,8.142-7.673,14.613-15.736,16.481   c-20.846,4.831-40.879,11.913-59.813,20.988c-7.505,3.597-16.426,2.395-22.682-3.095l-39.435-34.609   c-4.56-4.002-9.934-6.55-15.534-7.663c-9.834-2.625-18.795-4.531-28.295-5.433c-5.094-0.484-4.88,8.01-3.586,15.993l-37.101,33.047   c-12.621,11.242-14.882,30.128-5.271,44.031l29.962,43.343c4.736,6.851,4.876,15.846,0.456,22.905   c-12.217,19.51-22.203,40.603-29.578,62.944c-2.664,8.071-9.905,13.757-18.387,14.31l-45.874,2.99   c-16.865,1.099-30.266,14.599-31.241,31.472l-3.104,53.705c-0.975,16.873,10.781,31.826,27.408,34.861l48.573,8.866   c8.047,1.469,14.457,7.536,16.421,15.478c5.848,23.641,14.599,46.201,25.871,67.254c4.06,7.583,2.919,16.902-2.755,23.368   l-29.37,33.466c-11.148,12.703-11.078,31.724,0.163,44.345l33.1,37.16c-1.557,1.164-2.782,2.073-2.782,2.073l0.782,6.866   c5.884,1.048,17.526,4.06,25.426,5.005c0.322,0.041,0.646,0.075,0.969,0.107c0.101,0.01,0.21,0.025,0.309,0.034   c0.034,0.003,0.065,0.003,0.099,0.006c7.524,0.65,15.282-1.228,21.909-5.809l42.93-29.676c6.586-4.553,15.187-4.88,22.142-0.915   c19.751,11.263,40.982,20.295,63.372,26.736c8.376,2.409,14.307,9.862,14.874,18.559l3.176,48.718   c0.438,6.721,2.85,12.888,6.656,17.941l-4.729,7.769c6.041,1.728,18.084,4.869,26.961,5.382c0.308,0.018,0.605,0.018,0.895,0.007   c0.559,0.061,1.122,0.11,1.689,0.143l53.705,3.104c16.873,0.975,31.827-10.781,34.862-27.408l10.676-58.488   c1.404-7.691,7.01-13.949,14.509-16.159c20.019-5.899,39.182-13.902,57.217-23.763c7.682-4.201,17.156-3.222,23.737,2.553   l37.919,33.278c-2.568,3.261-5.111,6.542-5.111,6.542c3.935,0.498,17.631,3.369,23.363,4.586c0.838,0.211,1.682,0.395,2.531,0.54   c0.007,0.001,0.024,0.005,0.024,0.005l0.002-0.001c9.739,1.66,20.061-1.008,27.909-7.998l40.17-35.781   c12.621-11.242,14.882-30.128,5.271-44.031l-37.974-54.933c-4.459-6.45-4.878-14.851-1.137-21.742   c8.811-16.23,16.135-33.415,21.777-51.384c2.553-8.131,9.902-13.816,18.406-14.37l62.348-4.065   c16.866-1.099,30.266-14.599,31.241-31.472l3.104-53.705C794.534,358.958,782.778,344.004,766.151,340.969z M375.317,424.584   c-24.949,0-45.174-20.225-45.174-45.174c0-24.949,20.225-45.174,45.174-45.174c24.949,0,45.174,20.225,45.174,45.174   C420.491,404.359,400.266,424.584,375.317,424.584z"/>
	<path style="fill:#FFB400;" d="M741.288,336.04l-68.671-12.535c-7.84-1.431-14.136-7.236-16.277-14.913   c-4.846-17.374-11.269-34.124-19.114-50.076c-3.686-7.495-2.447-16.479,3.062-22.757l42.258-48.151   c11.148-12.703,11.078-31.724-0.163-44.345l-35.781-40.17c-11.242-12.621-30.128-14.882-44.031-5.271l-55.106,38.094   c-6.717,4.644-15.515,4.883-22.522,0.69c-16.086-9.623-33.201-17.75-51.163-24.173c-7.819-2.796-13.262-9.926-13.802-18.213   l-3.9-59.819C454.979,17.536,441.48,4.135,424.607,3.16l-53.705-3.104c-16.873-0.975-31.827,10.781-34.862,27.408l-10.765,58.975   c-1.486,8.142-7.673,14.613-15.736,16.481c-20.846,4.831-40.879,11.913-59.813,20.988c-7.505,3.597-16.426,2.395-22.682-3.095   l-39.436-34.609c-12.703-11.148-31.724-11.078-44.345,0.163l-40.17,35.781c-12.621,11.242-14.882,30.128-5.271,44.031   l29.962,43.343c4.736,6.851,4.876,15.846,0.456,22.905c-12.217,19.51-22.203,40.603-29.578,62.944   c-2.664,8.071-9.905,13.757-18.387,14.31l-45.874,2.99c-16.866,1.099-30.266,14.599-31.241,31.472l-3.104,53.705   c-0.975,16.873,10.781,31.827,27.408,34.862l48.573,8.866c8.048,1.469,14.457,7.536,16.421,15.477   c5.848,23.641,14.599,46.201,25.871,67.255c4.06,7.583,2.919,16.902-2.755,23.368l-29.37,33.466   c-11.148,12.703-11.078,31.724,0.163,44.345l35.781,40.17c11.242,12.621,30.128,14.882,44.031,5.271l42.93-29.677   c6.586-4.552,15.186-4.88,22.141-0.915c19.751,11.262,40.982,20.295,63.371,26.736c8.376,2.41,14.307,9.862,14.874,18.559   l3.176,48.718c1.099,16.866,14.599,30.266,31.472,31.241l53.705,3.104c16.873,0.975,31.827-10.781,34.862-27.408l10.676-58.488   c1.404-7.691,7.01-13.949,14.51-16.159c20.019-5.9,39.182-13.902,57.217-23.764c7.682-4.201,17.156-3.222,23.737,2.553   l42.292,37.116c12.703,11.148,31.724,11.078,44.345-0.164l40.17-35.781c12.621-11.242,14.882-30.128,5.271-44.031l-37.974-54.933   c-4.459-6.45-4.879-14.851-1.137-21.742c8.812-16.23,16.135-33.415,21.777-51.384c2.553-8.131,9.902-13.816,18.406-14.37   l62.348-4.064c16.866-1.099,30.266-14.599,31.241-31.472l3.104-53.705C769.671,354.028,757.915,339.075,741.288,336.04z    M375.317,424.584c-24.949,0-45.174-20.225-45.174-45.174c0-24.949,20.225-45.174,45.174-45.174   c24.949,0,45.174,20.225,45.174,45.174C420.491,404.359,400.266,424.584,375.317,424.584z"/>
	<path style="fill:#F04E23;" d="M386.474,190.937c-106.628-6.162-198.062,75.281-204.224,181.909   c-6.162,106.628,75.281,198.062,181.909,204.224s198.062-75.281,204.224-181.909C574.545,288.533,493.102,197.099,386.474,190.937z    M375.317,424.584c-24.949,0-45.174-20.225-45.174-45.174c0-24.949,20.225-45.174,45.174-45.174   c24.949,0,45.174,20.225,45.174,45.174C420.491,404.359,400.266,424.584,375.317,424.584z"/>
	<path style="fill:#F04E23;" d="M375.614,612.064c-4.473,0-8.953-0.129-13.455-0.39c-60.813-3.514-116.618-30.5-157.134-75.987   s-60.894-104.028-57.379-164.841c3.514-60.813,30.5-116.617,75.987-157.133c45.487-40.516,104.028-60.893,164.841-57.379   c60.813,3.514,116.617,30.5,157.133,75.987s60.894,104.028,57.379,164.841c-3.514,60.813-30.5,116.617-75.987,157.133   C484.881,591.811,431.559,612.064,375.614,612.064z M375.177,163.948c-115.586,0-212.792,90.521-219.545,207.359   c-3.391,58.68,16.272,115.168,55.367,159.059c39.095,43.891,92.942,69.93,151.622,73.321   c58.683,3.388,115.167-16.272,159.058-55.367c43.891-39.095,69.93-92.942,73.321-151.622l3.993,0.231l-3.993-0.231   c7-121.134-85.854-225.379-206.988-232.38C383.717,164.071,379.427,163.948,375.177,163.948z"/>
</g>

</g>
</g>

<!-- ITEM 5 -->
<g transform="translate(814.0 181.0) scale(0.5810410555106784 0.5812964328248171) rotate(0.0 35.281499999999994 35.266)">
<g transform="translate(-0.0 -0.0)">
<title>star</title><g id="Layer_2-i5" data-name="Layer 2"><g id="star-i5"><path d="M69.494,33.95a68.907,68.907,0,0,0-17.029-4.005,109.264,109.264,0,0,0-10.937-.732c-.194-3.574-.474-7.147-.883-10.764A103,103,0,0,0,37.373,1.441,1.961,1.961,0,0,0,36.016.084a1.981,1.981,0,0,0-2.467,1.327l-.008.03a103,103,0,0,0-3.273,17.008c-.409,3.638-.71,7.3-.883,10.936-3.638.173-7.3.474-10.936.883A103,103,0,0,0,1.441,33.541,2.151,2.151,0,0,0,.084,34.9a1.98,1.98,0,0,0,1.327,2.467l.03.009a103,103,0,0,0,17.008,3.272c3.574.409,7.147.689,10.764.883a109.264,109.264,0,0,0,.732,10.937A68.907,68.907,0,0,0,33.95,69.494a1.633,1.633,0,0,0,.925.926,1.679,1.679,0,0,0,2.153-.926,70.8,70.8,0,0,0,4.005-17.029c.43-3.574.624-7.148.71-10.765a91.1,91.1,0,0,0,10.765-.71,70.8,70.8,0,0,0,17.029-4.005,1.7,1.7,0,0,0,0-3.121Z" fill="#fdb813"/></g></g>
</g>
</g>

<!-- ITEM 6 -->
<g transform="translate(836.0 161.0) scale(0.2976063942859572 0.29773719730051607) rotate(0.0 35.2815 35.266)">
<g transform="translate(-0.0 -0.0)">
<title>star</title><g id="Layer_2-i6" data-name="Layer 2"><g id="star-i6"><path d="M69.494,33.95a68.907,68.907,0,0,0-17.029-4.005,109.264,109.264,0,0,0-10.937-.732c-.194-3.574-.474-7.147-.883-10.764A103,103,0,0,0,37.373,1.441,1.961,1.961,0,0,0,36.016.084a1.981,1.981,0,0,0-2.467,1.327l-.008.03a103,103,0,0,0-3.273,17.008c-.409,3.638-.71,7.3-.883,10.936-3.638.173-7.3.474-10.936.883A103,103,0,0,0,1.441,33.541,2.151,2.151,0,0,0,.084,34.9a1.98,1.98,0,0,0,1.327,2.467l.03.009a103,103,0,0,0,17.008,3.272c3.574.409,7.147.689,10.764.883a109.264,109.264,0,0,0,.732,10.937A68.907,68.907,0,0,0,33.95,69.494a1.633,1.633,0,0,0,.925.926,1.679,1.679,0,0,0,2.153-.926,70.8,70.8,0,0,0,4.005-17.029c.43-3.574.624-7.148.71-10.765a91.1,91.1,0,0,0,10.765-.71,70.8,70.8,0,0,0,17.029-4.005,1.7,1.7,0,0,0,0-3.121Z" fill="#fdb813"/></g></g>
</g>
</g>

              </svg>