<?xml version="1.0" encoding="UTF-8"?><svg version="1.1" xmlns="http://www.w3.org/2000/svg" xmlns:xlink="http://www.w3.org/1999/xlink" viewBox="0 0 1500 1500" width="1500" height="1500" x="0px" y="0px">
              
              <!-- ITEM 0 -->
<g>
    <defs>
        
        <clipPath id="clip-path-id-viewbox-item-0">
            <rect x="0.0" y="0.0" width="395.899" height="365.219"/>
        </clipPath>
    </defs>
    <g transform="translate(173.0 127.0) rotate(340.06571811577373 250.0 230.5) scale(1.2629483782479876 1.2622563448232431)">
        <g clip-path="url(#clip-path-id-viewbox-item-0)" transform="translate(-0.0 -0.0)">
<title>decoration_confetti</title><g id="Layer_2-i0" data-name="Layer 2"><g id="decoration_confetti-i0"><path d="M268.144,309.941c5.6-6.2,11.478-12.1,17.441-17.89,2.973-2.9,5.963-5.791,9.023-8.643s6.084-5.669,9.178-8.435c6.137-5.6,12.446-11.011,18.858-16.3a221.238,221.238,0,0,1,20.069-14.934.864.864,0,0,1,1.14,1.279c-5.375,6.447-11.235,12.359-17.164,18.2s-12.1,11.408-18.357,16.853q-4.632,4.149-9.42,8.159c-3.146,2.7-6.361,5.341-9.576,7.968-6.465,5.186-12.981,10.371-19.792,15.263a1.054,1.054,0,0,1-1.4-1.573Z" fill="#00aee0"/><path d="M271.238,251.292a43.651,43.651,0,0,1-13.378-8.452,29.712,29.712,0,0,1-8.228-14,32.085,32.085,0,0,1,.467-16.387,45.432,45.432,0,0,1,7.363-14.5,57.045,57.045,0,0,1,25.824-19.014,56.259,56.259,0,0,1,15.937-3.353c1.452-.086,2.507-.19,3.682-.276a25.4,25.4,0,0,0,3.457-.536,29.583,29.583,0,0,0,6.465-2.23c8.262-4.028,13.966-12.307,16.265-21.434a47.932,47.932,0,0,0-1.971-28.278,63.322,63.322,0,0,0-16.455-24.2,99.637,99.637,0,0,0-25.15-16.576h0a.847.847,0,0,1-.4-1.128l.006-.013a.864.864,0,0,1,1.037-.432,87,87,0,0,1,27.519,14.865,64.908,64.908,0,0,1,19.013,25.271,52.409,52.409,0,0,1,2.887,32.1,42.014,42.014,0,0,1-6.914,15.124,35.193,35.193,0,0,1-12.912,10.838,36.264,36.264,0,0,1-8.055,2.731,28.523,28.523,0,0,1-4.183.623l-3.993.293a49.23,49.23,0,0,0-14.105,2.7,52.95,52.95,0,0,0-23.542,16.386,42.388,42.388,0,0,0-6.966,12.515,28.785,28.785,0,0,0-1.106,14,26.581,26.581,0,0,0,6.447,12.6,43.643,43.643,0,0,0,11.875,8.867h0a1.054,1.054,0,0,1-.9,1.9Z" fill="#04294f"/><path d="M140.389,211.156c-2.852-10.855-5.185-21.779-7.605-32.721-1.141-5.479-2.282-10.959-3.319-16.455s-2.126-10.976-3.111-16.49c-2.057-10.994-3.855-22.022-5.48-33.1s-2.973-22.176-3.7-33.412a.865.865,0,0,1,.8-.916.881.881,0,0,1,.882.622c3.163,10.786,5.635,21.711,8,32.652s4.373,21.935,6.223,32.963q1.452,8.28,2.748,16.559c.9,5.514,1.729,11.045,2.524,16.594,1.573,11.08,3.042,22.16,4.1,33.343a1.054,1.054,0,0,1-2.057.363Z" fill="#00aee0"/><path d="M229.858,196.567c0-7.363.587-14.64,1.192-21.9.311-3.63.64-7.26,1.055-10.855s.8-7.225,1.279-10.821c.881-7.19,2.005-14.346,3.3-21.468a197.168,197.168,0,0,1,5.065-21.1c.086-.294.536-.432.985-.311s.674.38.691.639a205.814,205.814,0,0,1-.795,21.987c-.657,7.26-1.486,14.468-2.558,21.624-.5,3.595-1.037,7.173-1.642,10.734s-1.21,7.139-1.867,10.7c-1.348,7.1-2.8,14.191-4.667,21.191-.086.363-.622.536-1.193.4S229.84,196.9,229.858,196.567Z" fill="#f04e23"/><path d="M98.749,242.391a59.717,59.717,0,0,0,4.114-16.041A32.719,32.719,0,0,0,101,210.793a18.658,18.658,0,0,0-4.027-6.136,16.809,16.809,0,0,0-5.981-3.768,25.925,25.925,0,0,0-14.865,0L71.905,202c-1.521.294-3.025.6-4.58.761a33.563,33.563,0,0,1-9.473-.242,25.187,25.187,0,0,1-16.23-9.939,26.165,26.165,0,0,1-4.011-8.643,28.122,28.122,0,0,1-.674-9.282,33.135,33.135,0,0,1,6.379-16.559.864.864,0,0,1,1.486.847h0a36.969,36.969,0,0,0-3.457,15.85,22.885,22.885,0,0,0,5.013,14.139,19.889,19.889,0,0,0,12.549,6.914,27.663,27.663,0,0,0,7.571.087,36.839,36.839,0,0,0,3.837-.6l4.079-1.02a37.424,37.424,0,0,1,9.265-1.193,26.607,26.607,0,0,1,9.542,1.729,22.22,22.22,0,0,1,8.141,5.583,24.624,24.624,0,0,1,4.84,8.366,34.889,34.889,0,0,1,.812,18.184,51.506,51.506,0,0,1-6.464,16.335,1.02,1.02,0,0,1-1.389.39l-.046-.027a1.055,1.055,0,0,1-.45-1.279Z" fill="#f04e23"/><path d="M214.18,213.835a17.443,17.443,0,0,0-5.358-8.642,26.539,26.539,0,0,0-8.142-4.927,32.874,32.874,0,0,0-4.511-1.452,28.015,28.015,0,0,0-4.771-.518,31.855,31.855,0,0,0-17.614,5.064A39.38,39.38,0,0,0,166.3,209.5a40.679,40.679,0,0,1-1.245-5.186c-1.849-10.371,0-21.364,3.63-31.511a81.877,81.877,0,0,1,7.26-14.64,89.4,89.4,0,0,1,10.112-13.051.865.865,0,0,0-1.192-1.242l-.018.015a74.852,74.852,0,0,0-11.616,12.445,76.785,76.785,0,0,0-8.642,14.779,63.586,63.586,0,0,0-5.48,34.156,41.073,41.073,0,0,0,2.161,8.729c.155.467.346.916.536,1.365-.19.294-.381.588-.553.882a35.208,35.208,0,0,0-5.1,17.182,38.032,38.032,0,0,0,3.786,17.285,53.026,53.026,0,0,0,10.129,14.053,84.377,84.377,0,0,0,13.223,10.734,1.065,1.065,0,1,0,1.245-1.729h0a95.035,95.035,0,0,1-12.1-11.235,49.171,49.171,0,0,1-8.643-13.586,35.054,35.054,0,0,1-2.644-15.315,30.316,30.316,0,0,1,1.555-7.536,35.313,35.313,0,0,1,1.435-3.578l.674-1.262c.173.294.363.587.553.881a32.334,32.334,0,0,0,6.258,6.914,35.293,35.293,0,0,0,8.037,4.754,31.872,31.872,0,0,0,18.392,2.212,23.387,23.387,0,0,0,8.954-3.906,19.45,19.45,0,0,0,6.361-7.848A16.165,16.165,0,0,0,214.18,213.835Zm-7.122,7.692a12.732,12.732,0,0,1-4.131,5,16.478,16.478,0,0,1-6.309,2.7,25.478,25.478,0,0,1-14.433-1.728,25.581,25.581,0,0,1-11.5-9.075,22.492,22.492,0,0,1-1.884-3.008,33.532,33.532,0,0,1,8.159-6.827,26.292,26.292,0,0,1,14.208-3.855,24.243,24.243,0,0,1,3.561.449,26.205,26.205,0,0,1,3.457,1.176,20.607,20.607,0,0,1,6.084,3.785A9.715,9.715,0,0,1,207.058,221.527Z" fill="#ffb400"/><path d="M349.039,188.011l20.932-8.971a4.823,4.823,0,0,1,6.223,6.569l-7.9,16.006a4.806,4.806,0,0,1-6.431,2.2c-.058-.028-.115-.058-.172-.089l-13.033-7.035a4.822,4.822,0,0,1,.38-8.677Z" fill="#00aee0"/><path d="M19.825,177.657l-4.373,14.071c-.865,2.765-5.981,1.728-7.779-1.556l-7.19-13.12c-1.106-2-.242-3.82,1.884-3.992l11.564-.934C17.128,171.867,20.637,175.168,19.825,177.657Z" fill="#04294f"/><path d="M319.862,302.768l-4.01,18.789a3.456,3.456,0,0,0,2.61,4.1l17.285,3.959a3.457,3.457,0,0,0,3.958-2.04l6.257-14.9a3.457,3.457,0,0,0-1.85-4.525l-.051-.021-19.55-7.847a3.456,3.456,0,0,0-4.485,1.945A3.55,3.55,0,0,0,319.862,302.768Z" fill="#f04e23"/><path d="M54.4,87.256,41.466,82.364a2.507,2.507,0,0,0-3.2,1.417L33.584,95.674a2.489,2.489,0,0,0,1.02,3.042l9.922,6.05a2.506,2.506,0,0,0,3.443-.842l.014-.023,7.692-13.067a2.472,2.472,0,0,0-1.28-3.578Z" fill="#ffb400"/><path d="M172.4,122.6l10.2-7.9a2.783,2.783,0,0,0,.985-3.146l-4.217-9.075a1.593,1.593,0,0,0-2.334-.588l-9.144,5.013a2.9,2.9,0,0,0-1.452,3.077l3.181,11.961C169.93,123.174,171.278,123.486,172.4,122.6Z" fill="#04294f"/><circle cx="138.609" cy="260.039" r="7.951" fill="#04294f"/><circle cx="241.75" cy="11.356" r="11.356" fill="#00aee0"/><circle cx="346.343" cy="359.532" r="5.687" fill="#04294f"/><circle cx="385.424" cy="247.593" r="10.475" fill="#ffb400"/></g></g>
        </g>
    </g>
</g>

<!-- ITEM 1 -->
<g>
    <defs>
        
        <clipPath id="clip-path-id-viewbox-item-1">
            <rect x="0.0" y="0.0" width="447.069" height="608.681"/>
        </clipPath>
    </defs>
    <g transform="translate(1184.0 567.0) rotate(0.0 -305.0 416.0) scale(-1.3644426251876107 1.3668900458532465)">
        <g clip-path="url(#clip-path-id-viewbox-item-1)" transform="translate(-0.0 -0.0)">
<title>high-five_man_1</title><g id="Layer_2-i1" data-name="Layer 2"><g id="high-five_man_1-i1"><path d="M109.218,452.906l1.474-.487v-.113l-1.587.525Z" fill="none"/><path d="M57.645,498.98a11.823,11.823,0,0,1,3.112-4.6c-3.749.974-7.411,1.824-11.1,2.5-.712.137-1.4.237-2.1.362a1.706,1.706,0,0,1,0,.35A75.619,75.619,0,0,0,44.4,522.586a87.016,87.016,0,0,0,4.111,24.993,1.133,1.133,0,0,1,0,.762h5.674c2.986,0,5.948-.212,8.909-.412-2.974-5.061-6.523-13.746-7.5-27.292C54.9,509.952,56.083,503.192,57.645,498.98Z" fill="#ffb400"/><path d="M48.485,547.579a87.016,87.016,0,0,1-4.111-24.993,75.619,75.619,0,0,1,3.161-24.993,1.706,1.706,0,0,0,0-.35c-.087-.912-1.474-1.487-2.5-1.324-2.961.462-5.873.787-8.747,1.037a1.706,1.706,0,0,1,0,1.137C34.114,503.916,31.1,511,32.54,525.735a192.68,192.68,0,0,0,3.749,23.581c3.149.25,6.248.437,9.4.512a3.1,3.1,0,0,0,2.824-1.512A1.135,1.135,0,0,0,48.485,547.579Z" fill="#fff"/><path d="M32.49,525.76c-1.4-14.733,1.612-21.819,3.749-27.642a1.706,1.706,0,0,0,0-1.137c-.463-1.537-2.887-2.7-4.624-3.174s-3.261-.812-4.9-1.15c-2.5-.525-5.073-.912-7.61-1.249s-5.086-.563-7.623-.688c-1.174-.062-2.874-.062-4.373,0a3.862,3.862,0,0,0-3.662,3.287c-2.811,13.971-6.248,40.538.325,75.6,0,0,.487,3.024,5.174,2.962,4.086,0,6.073,0,12.234-9.51a10.961,10.961,0,0,1-3.487-2.437,15.573,15.573,0,0,1-2.887-4.336,15.2,15.2,0,0,1-1.374-4.911,17.086,17.086,0,0,1,0-2.5,11.022,11.022,0,0,1,.6-2.5.7.7,0,0,1,.9-.4l.009,0a.665.665,0,0,1,.287.2h0a12.647,12.647,0,0,1,1.375,2.112,20.172,20.172,0,0,1,1.05,2.062c.662,1.35,1.137,2.724,1.674,4.036s1.062,2.65,1.662,3.937c.425.925.912,1.862,1.425,2.787.962-1.563,2.024-3.324,3.2-5.349h0a4.558,4.558,0,0,0,1-.187l1.762-.375a15.1,15.1,0,0,1-1.638-1.95,15.473,15.473,0,0,1-2.5-4.6,15.07,15.07,0,0,1-.862-5,17.459,17.459,0,0,1,.262-2.5,11.011,11.011,0,0,1,.863-2.5.7.7,0,0,1,.884-.443.626.626,0,0,1,.1.044.661.661,0,0,1,.262.224h0a12.763,12.763,0,0,1,1.162,2.237,20.164,20.164,0,0,1,.838,2.162c.512,1.412.849,2.824,1.249,4.186s.788,2.737,1.25,4.087a27.3,27.3,0,0,0,1.25,3.086l.649-.162c1.912-.55,4.762-1.737,4.349-3.749l-.25-1.125A192.83,192.83,0,0,1,32.49,525.76Zm-5.636-19.319c-.387,3.661-4.649,6.248-9.522,5.711s-8.5-3.887-8.085-7.561,4.636-6.248,9.509-5.723S27.229,502.767,26.854,506.441Z" fill="#f04e23"/><path d="M29.028,547.154c-.4-1.362-.737-2.774-1.249-4.186a20.164,20.164,0,0,0-.838-2.162,12.763,12.763,0,0,0-1.162-2.237h0a.659.659,0,0,0-.287-.312.7.7,0,0,0-.937.312,10.987,10.987,0,0,0-.863,2.5,17.474,17.474,0,0,0-.262,2.5,15.066,15.066,0,0,0,.862,5,15.455,15.455,0,0,0,2.449,4.686,15.131,15.131,0,0,0,1.762,1.8,8.135,8.135,0,0,0,2.5,1.462.8.8,0,0,0,.562,0,.775.775,0,0,0,.387-1.025l-.087-.2-.412-.95c-.438-1.024-.863-2.074-1.25-3.086C29.816,549.891,29.428,548.528,29.028,547.154Z" fill="#04294f"/><path d="M19.444,554.264c-.538-1.249-1.013-2.686-1.675-4.036a19.972,19.972,0,0,0-1.05-2.062,12.641,12.641,0,0,0-1.374-2.112h0a.668.668,0,0,0-.288-.2.7.7,0,0,0-.909.392l0,.008a11.08,11.08,0,0,0-.6,2.5,17.384,17.384,0,0,0,0,2.5,15.178,15.178,0,0,0,1.375,4.911,15.53,15.53,0,0,0,2.887,4.336,10.956,10.956,0,0,0,3.486,2.437,7.6,7.6,0,0,0,1.137.375.751.751,0,0,0,.563-.063.773.773,0,0,0,.274-1.049l-.112-.188c-.2-.35-.387-.712-.587-1.075-.513-.924-1-1.862-1.425-2.786A41.8,41.8,0,0,1,19.444,554.264Z" fill="#04294f"/><path d="M224.272,434.8a2.923,2.923,0,0,0,1.4,3.374c5.824,4.224,15.433-4.4,20.994-10.722C231.02,427.689,225.171,432.212,224.272,434.8Z" fill="#04294f"/><path d="M324.218,395.423c-19.457,9.122-72.542,27.867-171.888,22.468l-33.778-3.349s-6.035,54.035-19.044,59.208c-.7.8-1.412,1.6-2.137,2.375a57.869,57.869,0,0,1-8.985,6.948,81.79,81.79,0,0,1-22.106,8.472,12.2,12.2,0,0,0-5.448,2.9,11.834,11.834,0,0,0-3.112,4.6c-1.562,4.211-2.749,10.972-2.037,21.644.912,13.546,4.461,22.231,7.5,27.292l.237.4a10.722,10.722,0,0,0,9.71,5.2,128.214,128.214,0,0,0,44.987-10.484,115.516,115.516,0,0,0,24.168-14.846,113.119,113.119,0,0,0,19.644-20.919,114.291,114.291,0,0,0,11.247-19.119h0c14.471-29.192,113.717-35.677,127.551-8.748h0a57.58,57.58,0,0,1,.712,11.334,84.968,84.968,0,0,1-6.9,26.768s-1.25,2.112,2.437,6.485c.45-1.324.9-2.636,1.324-3.986v.075c1.187-2.249,12.759,1.537,25.83,8.447s22.731,14.334,21.544,16.583h0c-.662,1.25-1.35,2.5-2.049,3.749,3.936.275,4.611-1.175,4.611-1.175a129.719,129.719,0,0,0,19.519-47.773,114.977,114.977,0,0,0,1.25-28.342,112.517,112.517,0,0,0-6.248-28,117.624,117.624,0,0,0-12.5-24.768,140.862,140.862,0,0,0-16.507-20.469c-1.8-1.85-3.649-3.624-5.511-5.361A21.309,21.309,0,0,1,324.218,395.423ZM265.3,451.394a1.512,1.512,0,0,1-3.011,0h0a45.534,45.534,0,0,0-1.25-7.048,34.457,34.457,0,0,0-2.4-6.573,32.884,32.884,0,0,0-3.6-5.923c-.288-.363-.575-.725-.875-1.075-.062.812-.137,1.625-.237,2.5a46.386,46.386,0,0,1-1.687,8.173,30.208,30.208,0,0,1-1.488,3.961,24.28,24.28,0,0,1-2.049,3.749,18.755,18.755,0,0,1-6.248,6.024,1.45,1.45,0,0,1-1.612-2.4h0a16.891,16.891,0,0,0,4.586-5.623,29.96,29.96,0,0,0,2.5-6.948,50.007,50.007,0,0,0,1.188-7.5v-.687c-4.812,5.236-12.659,12.3-20.082,12.3a10.637,10.637,0,0,1-6.423-2.112,7.835,7.835,0,0,1-3.2-9.06c2.5-7.31,14.52-11.246,32.09-10.659,19.382-3.961,29.3.5,31.9,5.573a7.274,7.274,0,0,1-1.737,8.973,10.328,10.328,0,0,1-7.211,2.687,25.066,25.066,0,0,1-11.372-3.487,33.926,33.926,0,0,1,1.987,7.361A35.122,35.122,0,0,1,265.3,451.394Z" fill="#04294f"/><path d="M278.269,433.287a2.325,2.325,0,0,0,.837-2.937c-1.412-2.749-8.248-5.673-21.531-3.824C263.835,431.375,273.807,437.411,278.269,433.287Z" fill="#04294f"/><path d="M116.978,450.332l-6.348,2.087-1.475.487-.087-.075A87.9,87.9,0,0,1,93.66,435.786a3.4,3.4,0,0,1,3.111-5.311h.075a54.343,54.343,0,0,1,5.436.937c.937.213,1.875.45,2.824.713a27.007,27.007,0,0,0,2.7.687l2.812.325a5.8,5.8,0,0,0,3.749-.887,6.149,6.149,0,0,0,1.575-8.373,39.247,39.247,0,0,0-2.275-3.249l-1.249-1.587-1.387-1.475a40.4,40.4,0,0,0-6.361-5.31,41.311,41.311,0,0,0-16.47-6.4l-2.325-.362c-.787-.075-1.562-.075-2.361-.112h0a6.575,6.575,0,0,1-5.986-4.174c-.75-1.925-1.537-3.837-2.35-5.7a64.651,64.651,0,0,1-3.861-21.056,46.019,46.019,0,0,1,1.675-11.247,2.037,2.037,0,0,1,.137-.525,37.183,37.183,0,0,1,2.949-7.185h0a18.982,18.982,0,0,0,1.037-2.174c-6,1.412-15.77-.238-33.665-8.373C28.1,337.965,20.606,331.2,17.457,325.068c-.988,3.212-1.925,6.4-2.762,9.448-.162.5-.337,1.012-.475,1.549-.662,2.424-1.25,4.886-1.724,7.36a3.382,3.382,0,0,1-.1.488h0a90.552,90.552,0,0,0-1.25,9,108.787,108.787,0,0,0,.2,22.569.375.375,0,0,0,0,.125v.125c.212,1.849.462,3.686.775,5.5.275,1.562.6,3.087.937,4.6a1.563,1.563,0,0,0,0,.237c4.8,23.918,13.209,38.564,21.456,52.185s16.845,23.543,25.393,30.766l.087.075-.275.1c13.034,9.5,28.155,9.11,39.726,4.524C112.492,468.514,121.039,458.005,116.978,450.332ZM86.9,420.678a.812.812,0,0,1,.994-.576h.081a8.956,8.956,0,0,1,2.749,1.65,10.333,10.333,0,0,1,1.837,2.137,16.364,16.364,0,0,1,1.4,2.5,10.95,10.95,0,0,1,.887,3.037h0a.9.9,0,0,1-.775,1,.7.7,0,0,1-.362,0,9.221,9.221,0,0,1-2.937-1.462,12.071,12.071,0,0,1-2.224-2.149,8.73,8.73,0,0,1-1.537-2.724,6.077,6.077,0,0,1-.113-3.412Zm-5.623,53.235a.79.79,0,0,1-.788.212,24.988,24.988,0,0,1-7.735-3.974,33.047,33.047,0,0,1-6.248-6.1,33.572,33.572,0,0,1-4.511-7.5,27.066,27.066,0,0,1-2.137-8.4.65.65,0,0,1,1.137-.463h0c1.85,2.237,3.312,4.524,4.849,6.736s3.011,4.386,4.586,6.5,3.261,4.136,5,6.086,3.749,3.749,5.774,5.711h0a.787.787,0,0,1,.148,1.1.733.733,0,0,1-.073.084Zm17.62-4.124a.762.762,0,0,1-.825.175,35.292,35.292,0,0,1-8.435-4.749,42.759,42.759,0,0,1-7.073-6.71,37.169,37.169,0,0,1-5.324-8.185,29.412,29.412,0,0,1-2.724-9.335.638.638,0,0,1,.562-.7.612.612,0,0,1,.575.25h0c1.962,2.562,3.624,5.111,5.386,7.585s3.487,4.886,5.349,7.236,3.861,4.6,5.935,6.8,4.312,4.311,6.549,6.535h0a.776.776,0,0,1,.029,1.1l0,0Z" fill="#ffb400"/><path d="M422.04,243.117c-1.038,1.25-2.087,2.5-3.175,3.661a.915.915,0,0,1-.037.888,22.694,22.694,0,0,1-9.7,8.172,24.083,24.083,0,0,1-13.1,1.625A34.239,34.239,0,0,1,383.776,253a46.536,46.536,0,0,1-10-7.973c-.737-.762-1.462-1.537-2.124-2.374s-1.375-1.612-1.974-2.5a51.24,51.24,0,0,1-3.437-5.361,37.991,37.991,0,0,1-4.4-12.084,23.865,23.865,0,0,1,1.138-13.1,17.832,17.832,0,0,1,8.747-9.372,1.137,1.137,0,0,1,1.519.527l.006.01a.523.523,0,0,1,0,.125,36.711,36.711,0,0,0,5.2-4.511c.462-.5.912-1.025,1.375-1.55a19.537,19.537,0,0,0-10.447-.9c-4.661,1.062-30.529,20.5-52.348,22.143a73.414,73.414,0,0,1-8.6.25h-5.174a2.239,2.239,0,0,1,.35.338,1.874,1.874,0,0,1,.125,2.112,55.5,55.5,0,0,1-15.5,16.395,86.357,86.357,0,0,1-20.069,10.559,129.359,129.359,0,0,1-44.088,7.6c-3.749,0-7.435-.075-11.159-.275s-7.41-.612-11.109-1.1a123.146,123.146,0,0,1-21.906-5,79.279,79.279,0,0,1-10.622-4.386,44.563,44.563,0,0,1-10-6.711,22.393,22.393,0,0,1-4.212-5.023,14.063,14.063,0,0,1-2.1-7,12.221,12.221,0,0,1,.525-3.674,22.334,22.334,0,0,1,1.1-2.8c.788-1.687,1.537-3.174,2.037-4.573v-.15a2.286,2.286,0,0,1,2.921-1.388h0a3.53,3.53,0,0,1,.374.2c.075-.613.163-1.25.25-1.825a212.917,212.917,0,0,0-28.479,4.087c-7.045,1.508-27.667,8.072-27.667,8.072a9.089,9.089,0,0,0-.787.5l.262-.287c-3.649,1.412-7.26,2.924-10.834,4.611-30.716,14.5-56.534,39.576-69.63,71.167a29.231,29.231,0,0,1-2.849,5.773c-3.162,5.586-7.111,13.021-2.787,21.506,3.149,6.149,10.647,12.872,25.993,19.857,17.894,8.135,27.667,9.785,33.665,8.373,8.522-2,9.36-10.185,14.871-14.671a81.633,81.633,0,0,1,21.681-12.621l1.662-.613c8.714,43.329,3.261,89.149,3.261,89.149,109.485,14.788,185.713-8.66,205.653-19.157a21.228,21.228,0,0,0,3.849-2.361,20.718,20.718,0,0,0,7.435-11.535c4.587-19.107,5.524-38.738,4.724-56.571l-.012.05c-.143-3.19-.345-6.3-.581-9.359,13.214-5.438,37.86-17.787,48.854-26.643,20.932-16.945,33.865-32.565,35.115-35.939C424.364,250.915,423.589,247.3,422.04,243.117Z" fill="#00aee0"/><path d="M27.741,319a2.5,2.5,0,0,1-3.4-.973v0a17.668,17.668,0,0,1-1.249-2.674,2.5,2.5,0,0,1,4.736-1.612,12.469,12.469,0,0,0,.837,1.874A2.5,2.5,0,0,1,27.741,319Z" fill="#00aee0"/><path d="M38.9,329.142l-.049.063h0a2.5,2.5,0,0,1-3.5.474c-1.449-1.1-2.811-2.224-4.048-3.349a2.513,2.513,0,1,1,3.349-3.748c1.137,1.024,2.386,2.049,3.749,3.061A2.5,2.5,0,0,1,38.9,329.142Z" fill="#00aee0"/><path d="M51.934,336.7h0a2.493,2.493,0,0,1-3.349,1.125c-1.537-.762-3.074-1.587-4.561-2.437a2.5,2.5,0,0,1,2.5-4.336c1.4.8,2.849,1.575,4.312,2.3A2.5,2.5,0,0,1,51.934,336.7Z" fill="#00aee0"/><path d="M66.165,341.728l-.01.035a2.5,2.5,0,0,1-3.085,1.725h0c-1.624-.45-3.286-.987-5-1.587a2.5,2.5,0,0,1,1.452-4.783,2.432,2.432,0,0,1,.235.084c1.562.55,3.111,1.05,4.624,1.475A2.5,2.5,0,0,1,66.165,341.728Z" fill="#00aee0"/><path d="M76.152,345.5l-.062.012a19.247,19.247,0,0,1-2.662-.125,2.507,2.507,0,0,1,.4-5c.787.062,1.574.1,2.324.112a2.5,2.5,0,0,1,0,5Z" fill="#00aee0"/><path d="M163.714,403.621a2.5,2.5,0,0,1-2.5,2.261h-.237l-2.5-.237a2.513,2.513,0,0,1,.513-5l2.5.238A2.5,2.5,0,0,1,163.714,403.621Z" fill="#00aee0"/><path d="M176.7,406.87v.012h-.1c-1.749-.062-3.486-.15-5.2-.25a2.5,2.5,0,1,1,.274-5c1.687.1,3.4.175,5.124.237a2.5,2.5,0,0,1-.1,5Z" fill="#00aee0"/><path d="M192.144,407.157H187a2.5,2.5,0,0,1,0-5h5.149a2.5,2.5,0,0,1,0,5Z" fill="#00aee0"/><path d="M207.827,406.845h-.063l-5.186.162a2.5,2.5,0,1,1-.062-5l5.123-.162a2.5,2.5,0,0,1,.188,5Z" fill="#00aee0"/><path d="M223.272,406h.05l-5.174.337h-.212a2.5,2.5,0,1,1-.137-5l5.136-.338a2.505,2.505,0,1,1,.337,5Z" fill="#00aee0"/><path d="M238.855,404.683v-.013l-5.174.5h-.224a2.5,2.5,0,1,1-.225-5c1.712-.15,3.411-.313,5.111-.488a2.513,2.513,0,0,1,.512,5Z" fill="#00aee0"/><path d="M254.326,402.858v-.012c-1.7.237-3.424.45-5.149.662h-.312a2.5,2.5,0,1,1-.3-5l5.1-.649a2.521,2.521,0,1,1,.663,5Z" fill="#00aee0"/><path d="M269.892,400.409c-.049.01-.1.018-.146.025l-5.136.912h-.4a2.506,2.506,0,1,1-.387-5l5.073-.838a2.5,2.5,0,0,1,1,4.9Z" fill="#00aee0"/><path d="M285.054,397.41l.013.1c-1.662.375-3.362.725-5.1,1.074a2.091,2.091,0,0,1-.5,0,2.511,2.511,0,1,1-.487-5c1.7-.338,3.374-.7,5-1.062a2.5,2.5,0,1,1,1.075,4.886Z" fill="#00aee0"/><path d="M300.312,393.686h-.05c-1.637.475-3.311.937-5,1.387a2.218,2.218,0,0,1-.638.087,2.5,2.5,0,0,1-.624-4.911c1.687-.449,3.324-.9,4.923-1.362a2.5,2.5,0,0,1,1.387,4.8Z" fill="#00aee0"/><path d="M315.478,388.361a2.4,2.4,0,0,1-.3.126c-1.525.65-3.187,1.313-4.936,1.95h.012a2.331,2.331,0,0,1-.862.162,2.5,2.5,0,0,1-.862-4.848c1.662-.613,3.236-1.25,4.686-1.85a2.5,2.5,0,0,1,2.257,4.46Z" fill="#00aee0"/><path d="M326.867,381.7v.062a25.913,25.913,0,0,1-2.174,1.662,2.5,2.5,0,1,1-2.85-4.111,22.1,22.1,0,0,0,1.787-1.362,2.5,2.5,0,0,1,3.237,3.749Z" fill="#00aee0"/><path d="M339.4,312.747c.059-2.106.065-4.213.047-6.319a53.848,53.848,0,0,1,.041,7.465C339.457,313.515,339.434,313.122,339.4,312.747Z" fill="#00aee0"/><path d="M348.348,217.1c0-.888,0-1.787.088-2.675a2.5,2.5,0,1,1,5,.338c0,.762-.075,1.549-.075,2.324a2.506,2.506,0,0,1-5.011.013Z" fill="#00aee0"/><path d="M354.709,234.894v.05a2.316,2.316,0,0,1-.862.163,2.5,2.5,0,0,1-2.35-1.637,46.3,46.3,0,0,1-1.662-5.286,2.5,2.5,0,0,1,4.849-1.25,48.124,48.124,0,0,0,1.5,4.8A2.5,2.5,0,0,1,354.709,234.894Z" fill="#00aee0"/><path d="M362.669,248.6v.087a2.5,2.5,0,0,1-3.482-.606l0-.006c-1.05-1.512-2.05-3.062-2.962-4.624a2.5,2.5,0,1,1,4.116-2.836,2.566,2.566,0,0,1,.195.337c.85,1.45,1.775,2.887,2.749,4.274A2.5,2.5,0,0,1,362.669,248.6Z" fill="#00aee0"/><path d="M373.728,259.962v.088a2.5,2.5,0,0,1-3.525.26l-.011-.01c-1.362-1.188-2.712-2.5-4-3.749a2.5,2.5,0,1,1,3.408-3.657c.058.054.113.111.166.17a44.855,44.855,0,0,0,3.749,3.487A2.5,2.5,0,0,1,373.728,259.962Z" fill="#00aee0"/><path d="M387.474,267.96a2.5,2.5,0,0,1-3.3,1.274,49.876,49.876,0,0,1-5-2.5,2.5,2.5,0,1,1,2.5-4.336,47.084,47.084,0,0,0,4.474,2.274,2.5,2.5,0,0,1,1.287,3.2Z" fill="#00aee0"/><path d="M397.8,272.771v.05h-.25c-.874-.088-1.774-.2-2.636-.35a2.531,2.531,0,1,1,.8-5c.774.125,1.537.238,2.311.3a2.5,2.5,0,1,1-.225,5Z" fill="#00aee0"/><path d="M417.291,71.517C399.4,67.543,394.8,91.149,393.685,117.2c-.212-.688-.412-1.375-.587-2.087-.25-.938-.45-1.887-.662-2.85a25.856,25.856,0,0,0-.6-2.711l-1-2.649a5.835,5.835,0,0,0-10.509-.875,40.375,40.375,0,0,0-2.05,3.749l-.812,1.874-.687,1.912a39.817,39.817,0,0,0-1.837,8.073,36.716,36.716,0,0,0-.263,4.861h0c-1.05,31.966,18.682,35.689,14.783,50.06a55.918,55.918,0,0,1-3.961,10.072,46.778,46.778,0,0,1-5.636,8.123c-.462.525-.912,1.05-1.374,1.55a36.784,36.784,0,0,1-5.2,4.511,1.136,1.136,0,0,1-.325,1.249A16.724,16.724,0,0,0,367.355,211l-.275,1.25-.112,1.25a12.7,12.7,0,0,0,0,2.586,26.775,26.775,0,0,0,.875,5.2,38.725,38.725,0,0,0,4.473,9.834,41.56,41.56,0,0,0,3.2,4.462c.538.749,1.163,1.412,1.762,2.112s1.25,1.362,1.887,2a47.1,47.1,0,0,0,8.46,6.848,33.6,33.6,0,0,0,9.673,4.3,22.111,22.111,0,0,0,10.309.25,27.039,27.039,0,0,0,9.922-4.774h0a.937.937,0,0,1,1.309.208l0,0a.535.535,0,0,1,.075.149c1.087-1.249,2.137-2.411,3.174-3.661a96.143,96.143,0,0,0,7.1-9.647,108.979,108.979,0,0,0,12.084-25.643,122.43,122.43,0,0,0,5.211-35.989h0C448.032,114.792,448.832,78.527,417.291,71.517Zm12.559,34.84c0-3.412.175-6.836.449-10.247a92.418,92.418,0,0,1,1.25-10.235.762.762,0,0,1,.885-.615l.015,0a.786.786,0,0,1,.612.612,92.418,92.418,0,0,1,1.25,10.235c.262,3.411.4,6.835.437,10.247s0,6.823-.287,10.234a61.58,61.58,0,0,1-1.575,10.247.637.637,0,0,1-.775.45.625.625,0,0,1-.462-.45,61.6,61.6,0,0,1-1.587-10.247C429.875,113.18,429.812,109.768,429.85,106.357Zm-16-4.349c0-1.987.075-3.986.163-5.973s.162-3.987.287-5.974c.275-3.986.625-7.972,1.25-11.959a.762.762,0,0,1,1.512,0,114.117,114.117,0,0,1,1.249,11.959c.125,1.987.238,3.974.288,5.974s.137,3.986.162,5.973c0,3.986,0,7.973-.3,11.959a83.438,83.438,0,0,1-1.574,11.947.638.638,0,0,1-1.25,0,85.351,85.351,0,0,1-1.587-11.947Q413.792,107.988,413.854,102.008Z" fill="#ffb400"/><path d="M415.729,125.876a.637.637,0,0,0,1.249,0,83.421,83.421,0,0,0,1.575-11.947c.275-3.986.337-7.972.3-11.959,0-1.986-.075-3.986-.163-5.973s-.162-3.986-.287-5.973c-.275-3.986-.625-7.973-1.25-11.959a.762.762,0,0,0-1.512,0,114.089,114.089,0,0,0-1.249,11.959c-.125,1.987-.238,3.974-.288,5.973s-.137,3.987-.162,5.973c0,3.987,0,7.973.287,11.959A85.27,85.27,0,0,0,415.729,125.876Z" fill="#04294f"/><path d="M431.724,126.838a.626.626,0,0,0,.462.45.637.637,0,0,0,.775-.45,61.58,61.58,0,0,0,1.575-10.247c.275-3.411.337-6.823.287-10.234s-.175-6.836-.437-10.247a92.389,92.389,0,0,0-1.25-10.235.786.786,0,0,0-.612-.612.761.761,0,0,0-.9.6l0,.014a92.389,92.389,0,0,0-1.25,10.235c-.274,3.411-.412,6.835-.449,10.247s0,6.823.287,10.234A61.741,61.741,0,0,0,431.724,126.838Z" fill="#04294f"/><path d="M98.883,468.689c-2.237-2.224-4.461-4.324-6.548-6.535s-4.061-4.462-5.936-6.8-3.611-4.774-5.348-7.236-3.424-5-5.386-7.585h0a.61.61,0,0,0-.575-.25.637.637,0,0,0-.562.7,29.386,29.386,0,0,0,2.724,9.335,37.129,37.129,0,0,0,5.323,8.185,42.838,42.838,0,0,0,7.073,6.71,35.345,35.345,0,0,0,8.435,4.749.762.762,0,0,0,.825-.175.774.774,0,0,0,0-1.087Z" fill="#04294f"/><path d="M81.226,472.8c-2.037-1.912-3.987-3.748-5.774-5.71a71.736,71.736,0,0,1-5-6.086c-1.537-2.112-3.062-4.3-4.586-6.5s-3-4.5-4.849-6.736h0a.65.65,0,0,0-1.137.463,27.066,27.066,0,0,0,2.137,8.4,33.557,33.557,0,0,0,4.511,7.5,33.047,33.047,0,0,0,6.248,6.1,24.988,24.988,0,0,0,7.735,3.974.775.775,0,0,0,.75-1.25Z" fill="#04294f"/><path d="M88.6,426.9a12.109,12.109,0,0,0,2.224,2.15,9.263,9.263,0,0,0,2.937,1.462.716.716,0,0,0,.362,0,.9.9,0,0,0,.775-1h0a10.918,10.918,0,0,0-.888-3.037,16.322,16.322,0,0,0-1.4-2.5,10.333,10.333,0,0,0-1.837-2.137,8.953,8.953,0,0,0-2.749-1.649h-.075a.812.812,0,0,0-1,.568l0,.007a6.076,6.076,0,0,0,.162,3.5A8.745,8.745,0,0,0,88.6,426.9Z" fill="#04294f"/><path d="M371.716,200.205h0a17.829,17.829,0,0,0-8.747,9.372,23.873,23.873,0,0,0-1.137,13.1,37.975,37.975,0,0,0,4.4,12.084,51.336,51.336,0,0,0,3.436,5.361,26.371,26.371,0,0,0,1.974,2.5c.725.825,1.388,1.612,2.125,2.375a46.556,46.556,0,0,0,10,7.972,34.225,34.225,0,0,0,12.259,4.461,24.081,24.081,0,0,0,13.109-1.587,22.691,22.691,0,0,0,9.722-8.122.913.913,0,0,0,.062-.913.522.522,0,0,0-.075-.149.936.936,0,0,0-1.307-.216l0,0h0a27.039,27.039,0,0,1-9.922,4.774,22.111,22.111,0,0,1-10.309-.25,33.608,33.608,0,0,1-9.673-4.3,47.1,47.1,0,0,1-8.46-6.848c-.649-.637-1.249-1.25-1.887-2a26.669,26.669,0,0,1-1.762-2.112,41.56,41.56,0,0,1-3.2-4.462,38.725,38.725,0,0,1-4.473-9.834,26.775,26.775,0,0,1-.875-5.2,12.7,12.7,0,0,1,0-2.586l.112-1.25.275-1.25a16.724,16.724,0,0,1,5.611-8.935,1.136,1.136,0,0,0,.325-1.249.436.436,0,0,0,0-.125,1.137,1.137,0,0,0-1.467-.66Q371.77,200.178,371.716,200.205Z" fill="#04294f"/><path d="M350.86,219.6a2.5,2.5,0,0,0,2.5-2.5c0-.775,0-1.562.075-2.325a2.5,2.5,0,1,0-5-.337h0c-.063.887-.088,1.787-.088,2.674a2.5,2.5,0,0,0,2.5,2.5Z" fill="#fff"/><path d="M360.532,240.843a2.5,2.5,0,1,0-4.507,2.162,2.572,2.572,0,0,0,.2.337c.912,1.562,1.912,3.112,2.962,4.624a2.5,2.5,0,1,0,4.1-2.874h0C362.307,243.729,361.382,242.292,360.532,240.843Z" fill="#fff"/><path d="M356.183,231.683a48.124,48.124,0,0,1-1.5-4.8,2.5,2.5,0,0,0-4.849,1.25c.463,1.749,1.013,3.524,1.662,5.286a2.5,2.5,0,0,0,2.35,1.637,2.316,2.316,0,0,0,.862-.163A2.5,2.5,0,0,0,356.183,231.683Z" fill="#fff"/><path d="M386.15,264.586a46.859,46.859,0,0,1-4.474-2.275,2.5,2.5,0,0,0-2.5,4.337,50.09,50.09,0,0,0,5,2.5,2.5,2.5,0,0,0,2.012-4.574Z" fill="#fff"/><path d="M369.767,252.952a2.5,2.5,0,1,0-3.74,3.316c.052.059.108.116.166.17a51.263,51.263,0,0,0,4,3.749,2.5,2.5,0,1,0,3.274-3.749C372.2,255.339,370.954,254.164,369.767,252.952Z" fill="#fff"/><path d="M397.984,267.735a14.639,14.639,0,0,1-2.312-.3,2.531,2.531,0,0,0-.8,5c.862.15,1.762.262,2.637.349h.25a2.5,2.5,0,1,0,.225-5Z" fill="#fff"/><path d="M156.254,402.883a2.5,2.5,0,0,0,2.222,2.749h0l2.5.238h.237a2.5,2.5,0,1,0,.225-5l-2.5-.237A2.5,2.5,0,0,0,156.254,402.883Z" fill="#fff"/><path d="M207.564,401.846l-5.123.163a2.5,2.5,0,0,0,.062,5h0l5.186-.162a2.5,2.5,0,1,0-.187-5Z" fill="#fff"/><path d="M176.785,401.884c-1.724-.063-3.436-.138-5.123-.238a2.5,2.5,0,0,0-.275,5h0c1.712.1,3.449.187,5.2.25h.112a2.5,2.5,0,0,0,.1-5Z" fill="#fff"/><path d="M271.77,397.61a2.5,2.5,0,0,0-2.886-2.037l-5.074.837a2.507,2.507,0,0,0,.388,5h.4l5.136-.85a2.5,2.5,0,0,0,2.049-2.88C271.779,397.656,271.775,397.633,271.77,397.61Z" fill="#fff"/><path d="M222.935,401.009l-5.136.337a2.5,2.5,0,0,0,.137,5h.163l5.173-.338a2.5,2.5,0,1,0-.337-5Z" fill="#fff"/><path d="M192.181,402.158h-5.148a2.5,2.5,0,1,0,0,5h5.2a2.5,2.5,0,0,0,0-5Z" fill="#fff"/><path d="M253.651,397.9l-5.1.65a2.5,2.5,0,0,0,.3,5h.312c1.725-.213,3.45-.425,5.149-.663a2.521,2.521,0,1,0-.662-5Z" fill="#fff"/><path d="M238.33,399.7c-1.7.175-3.4.337-5.111.487a2.5,2.5,0,0,0,.225,5h.225l5.173-.5a2.513,2.513,0,1,0-.512-5Z" fill="#fff"/><path d="M316.482,385.213a2.5,2.5,0,0,0-3.274-1.249c-1.449.612-3.024,1.249-4.686,1.849a2.5,2.5,0,0,0,.863,4.849,2.336,2.336,0,0,0,.862-.163c1.749-.637,3.411-1.249,4.923-1.949a2.5,2.5,0,0,0,1.341-3.27C316.5,385.257,316.492,385.235,316.482,385.213Z" fill="#fff"/><path d="M283.979,392.624c-1.637.362-3.311.724-5,1.062a2.511,2.511,0,1,0,.487,5h0a2.091,2.091,0,0,0,.5,0c1.737-.349,3.437-.7,5.1-1.074a2.5,2.5,0,0,0-1.075-4.886Z" fill="#fff"/><path d="M298.863,388.887c-1.6.463-3.237.913-4.924,1.362a2.5,2.5,0,0,0,.625,4.911,2.216,2.216,0,0,0,.637-.087c1.737-.45,3.412-.912,5-1.387a2.5,2.5,0,0,0-1.387-4.8Z" fill="#fff"/><path d="M323.63,377.953a22.1,22.1,0,0,1-1.787,1.362,2.5,2.5,0,1,0,2.85,4.111,25.913,25.913,0,0,0,2.174-1.662,2.5,2.5,0,0,0-3.237-3.749Z" fill="#fff"/><path d="M320.531,291.378c-2.7.75-9.035-2.5-14.121-5.111-7.96-4.086-17-8.747-26.005-7.21-7.9,1.312-14.033,7.835-19.994,14.133-4.611,4.9-9.847,10.46-13.9,10.809-3.749.35-9.584-4.086-14.795-7.985-7.086-5.3-14.4-10.772-22.706-10.772h-.1c-8.5,0-15.908,5.6-23.094,10.972-5.136,3.849-10.946,8.21-14.383,7.848-4.349-.45-9.422-6.536-13.883-11.909-1.424-1.715-2.871-3.457-4.372-5.123a6.815,6.815,0,0,0-11.795,3.683l-.021.153a6.588,6.588,0,0,0,1.61,5.3c1.351,1.5,2.715,3.133,4.018,4.7,6.136,7.385,13.1,15.758,23.006,16.782a17.685,17.685,0,0,0,1.812.088c8.023,0,15.208-5.386,22.181-10.6,5.149-3.849,10.984-8.223,15-8.248h0c3.749,0,9.472,4.274,14.508,8.048,7.5,5.623,15.321,11.434,24.18,10.672,9.26-.812,16.383-8.385,22.681-15.071,4.174-4.436,8.9-9.459,12.247-10,4.536-.75,11.434,2.774,17.5,5.9,7.947,4.061,16.158,8.272,23.993,6.123a28.174,28.174,0,0,0,12.922-8.111,6.371,6.371,0,0,0,1.536-5.105q-.065-.494-.136-1A6.5,6.5,0,0,0,327.1,287.02,13.9,13.9,0,0,1,320.531,291.378Z" fill="#fff"/><path d="M27.879,313.734a2.5,2.5,0,0,0-4.736,1.612,17.668,17.668,0,0,0,1.249,2.674,2.5,2.5,0,0,0,3.4.976h0a2.5,2.5,0,0,0,.975-3.386A12.543,12.543,0,0,1,27.879,313.734Z" fill="#fff"/><path d="M64.418,338.677c-1.512-.425-3.062-.925-4.624-1.475a2.5,2.5,0,1,0-1.921,4.615,2.413,2.413,0,0,0,.234.084c1.675.6,3.337,1.137,5,1.587a2.5,2.5,0,1,0,1.476-4.776c-.042-.013-.084-.024-.126-.035Z" fill="#fff"/><path d="M50.822,333.316c-1.462-.725-2.912-1.5-4.311-2.3a2.5,2.5,0,0,0-2.5,4.336c1.488.85,3.025,1.674,4.562,2.437a2.5,2.5,0,0,0,2.249-4.474Z" fill="#fff"/><path d="M38.376,325.693c-1.338-1.012-2.587-2.037-3.749-3.062a2.514,2.514,0,0,0-3.349,3.749c1.249,1.125,2.6,2.25,4.048,3.349a2.5,2.5,0,1,0,3.025-3.986h0Z" fill="#fff"/><path d="M78.626,343.088a2.5,2.5,0,0,0-2.5-2.5,16.265,16.265,0,0,1-2.324-.113,2.507,2.507,0,0,0-.4,5c.9.075,1.8.112,2.662.125h0a2.5,2.5,0,0,0,2.561-2.436C78.626,343.139,78.627,343.113,78.626,343.088Z" fill="#fff"/><path d="M191.831,101.308c-22.631-4.174-35.465,3.837-31.778,31.566,5,37.389,1.887,60.67,1.887,60.67h0q-.588,7.647-1.7,16.045c-.087.613-.175,1.25-.25,1.825a2.312,2.312,0,0,1,1.15,2,38.353,38.353,0,0,1-.787,5.736c-.125.837-.3,1.674-.325,2.349a5.319,5.319,0,0,0,.187,1.637c.563,1.987,2.425,3.849,4.911,5.449a40.9,40.9,0,0,0,8.51,3.911,87.786,87.786,0,0,0,9.585,2.624,149.085,149.085,0,0,0,20.119,2.812q5.1.412,10.222.512t10.247,0q5.124-.113,10.222-.537c3.387-.25,6.773-.612,10.147-1.05a171.787,171.787,0,0,0,20-3.749c13.1-3.274,25.63-8.26,36.751-16.82h0a1.888,1.888,0,0,1,.963-.375,15.331,15.331,0,0,0,1.162-4.136q1.761-13.845,2.5-26.242c3-47.361-3.749-79.165-9.835-97.2a100.217,100.217,0,0,1-9.184,4.3C257.6,104.457,214.437,105.532,191.831,101.308ZM205.3,118.8a21.044,21.044,0,1,1-21.031,21.056v-.012A21.044,21.044,0,0,1,205.3,118.8Zm-22.843,46.474a10.872,10.872,0,1,1-10.86,10.884v-.012A10.872,10.872,0,0,1,182.459,165.277Zm78.39,16.833a12.173,12.173,0,0,1-16.583,4.615,12.3,12.3,0,0,1-1.325-.866,10.961,10.961,0,0,1-4.336-6.886,4.486,4.486,0,0,1,3.674-5.148,4.717,4.717,0,0,1,1.837.075l1.25.325a13.765,13.765,0,0,0,3.749.662,1.689,1.689,0,0,0,.937-.238s.062.063.225,0a.579.579,0,0,0,.325,0,1.063,1.063,0,0,0,.474-.125,13.959,13.959,0,0,0,3.287-2.086l.925-.713a4.311,4.311,0,0,1,6.043.806l0,.006a4.187,4.187,0,0,1,.762,1.575A10.936,10.936,0,0,1,260.849,182.11Zm41.413-21.244a8.548,8.548,0,1,1,0-.025v.025ZM297.2,128.225a21.044,21.044,0,1,1-21.044-21.044h.012A21.032,21.032,0,0,1,297.2,128.213v.012Z" fill="#ffb400"/><path d="M143.683,178.361c3.461,5.761,9.022,10.909,18.257,15.22h0s3.1-23.28-1.887-60.67c-3.749-27.729,9.172-35.789,31.778-31.565S257.6,104.5,286.5,92.686a100.235,100.235,0,0,0,9.185-4.3c47.361-25.318,29.479-70.942,29.479-70.942-8.748,6.011-15.246,7.2-15.246,7.2C311.421,12.321,307.81,0,307.81,0s-16.245,13.908-52.272,29.741q-5.412,2.35-10.36,4.137a43.737,43.737,0,0,0,2.112-20.907s-24.7,28.38-69.7,27.492h-1.749c-16.645.113-29.267,5-36.04,12.347a4.1,4.1,0,0,1-5.536.412,27.393,27.393,0,0,0-2.986-2.049,29.989,29.989,0,0,0-16.845-4.824,2.853,2.853,0,0,0-.85.138,3.049,3.049,0,0,0-1.95,3.836l.1.312a48.324,48.324,0,0,0,3.512,7.5c1.25,2.275,2.5,4.211,3.749,6.248.3.45.6.9.912,1.337a2.5,2.5,0,0,1-1.787,3.9,30.735,30.735,0,0,0-8.622,2.137,2,2,0,0,0-.888.7,2.1,2.1,0,0,0,.424,2.939l.014.01.175.138a56.963,56.963,0,0,0,6.848,4c2.212,1.25,4.4,2.15,6.51,3.237h0a5.323,5.323,0,0,1,2.862,6.5c-2.124,6.786-1.912,16.408,4.849,29.567,6.248,12.134,6.573,24.28,7.5,35.539a88.066,88.066,0,0,0,1.875,13.534A36.326,36.326,0,0,0,143.683,178.361Zm125.2-141.209h0c4.074-1.437,8.16-2.762,12.084-4.274a61.245,61.245,0,0,0,5.648-2.5,17.5,17.5,0,0,0,4.574-3.112h0a2.481,2.481,0,0,1,4.3,1.712,19.1,19.1,0,0,1-.3,3.074,26.693,26.693,0,0,1-.688,2.874,21.481,21.481,0,0,1-2.5,5.336,22.957,22.957,0,0,1-1.724,2.387A24.778,24.778,0,0,1,288.2,44.7a17.259,17.259,0,0,1-4.9,2.936.65.65,0,0,1-.825-.35.637.637,0,0,1,.112-.649h0a34.085,34.085,0,0,0,3.274-4,23.269,23.269,0,0,0,2.387-4.324,30.313,30.313,0,0,0,1.337-4.024l-1.012.475a40.207,40.207,0,0,1-6.436,2.174,58.988,58.988,0,0,1-6.523,1.25,50.555,50.555,0,0,1-6.6.475.762.762,0,0,1-.25-1.487ZM245.653,54.034a.626.626,0,0,1,.7-.375h0a30.631,30.631,0,0,0,5.336.55c1.8,0,3.6,0,5.4-.175s3.6-.35,5.374-.624,3.6-.588,5.286-.95a2,2,0,0,1,1.8,3.436l-.075.063c-2.862,2.624-5.711,5.161-8.622,7.673l-5.2,4.486a36.457,36.457,0,0,0,3.911.475,70.886,70.886,0,0,0,8.623.1c2.9-.138,5.811-.45,8.747-.8s5.849-.812,8.648-1.375h.112a2.262,2.262,0,0,1,2.037,3.837c-1.824,1.774-3.749,3.474-5.723,5.061a69.921,69.921,0,0,1-6.173,4.473,71.883,71.883,0,0,1-6.573,3.812,51,51,0,0,1-7.011,2.961.773.773,0,0,1-.962-.487.75.75,0,0,1,.362-.9h0a71.579,71.579,0,0,0,6.249-3.861c2.024-1.362,3.986-2.837,5.9-4.336s3.636-3.024,5.373-4.624l-1.574.275c-3.012.462-6.061.762-9.123.937a65.862,65.862,0,0,1-9.3,0,34.823,34.823,0,0,1-9.422-2.012h0a2.4,2.4,0,0,1-1.4-3.086,2.357,2.357,0,0,1,.738-1.013l12.8-10.434c-1.562,0-3.124.087-4.7,0a45.752,45.752,0,0,1-5.661-.587,25.971,25.971,0,0,1-5.511-1.575.6.6,0,0,1-.362-.975ZM187.082,73.891c1.25-.775,2.575-1.437,3.849-2.124l3.749-2.025a57.824,57.824,0,0,0,6.923-4.373h0a2.5,2.5,0,0,1,3.462.424,2.608,2.608,0,0,1,.5,1.25,17.313,17.313,0,0,1,.125,3.062A20.068,20.068,0,0,1,203.5,78.54a17.475,17.475,0,0,1-1.575,2.5,21.455,21.455,0,0,1-1.974,2.137,15.013,15.013,0,0,1-4.811,2.912.625.625,0,0,1-.675-1.025h0a27.734,27.734,0,0,0,3.1-3.924,20.672,20.672,0,0,0,2.012-4.261,22.57,22.57,0,0,0,.987-4.536v-.425h0a29.248,29.248,0,0,1-4.261,1.749,33.209,33.209,0,0,1-4.374,1.25,29.841,29.841,0,0,1-4.486.587.787.787,0,0,1-.812-.75A.774.774,0,0,1,187.082,73.891Z" fill="#f04e23"/><path d="M255.125,128.25a21.044,21.044,0,1,0,21.044-21.044h0A21.044,21.044,0,0,0,255.125,128.25Zm30.1,13.6a2.861,2.861,0,0,1-1.987.825,2.811,2.811,0,0,1-2.824-2.8v-.037a2.812,2.812,0,0,1,3.324-2.762,4.363,4.363,0,0,1,.525.162,2.49,2.49,0,0,1,.912.613,2.867,2.867,0,0,1,.05,4Zm-1.4-21.531a7.164,7.164,0,0,1,1.1-.587,8.211,8.211,0,0,1,1.187-.363,6.866,6.866,0,0,1,2.5,0,8.211,8.211,0,0,1,1.187.363,7.108,7.108,0,0,1,1.1.587,5.688,5.688,0,0,1,1.75,1.762,5.752,5.752,0,0,1,.587,1.1,6.354,6.354,0,0,1,.363,1.174,5.9,5.9,0,0,1,.125,1.25,6.459,6.459,0,0,1-1.85,4.486,7.275,7.275,0,0,1-2.074,1.375,8.084,8.084,0,0,1-1.187.362,6.227,6.227,0,0,1-2.5,0,8.084,8.084,0,0,1-1.187-.362,7.235,7.235,0,0,1-1.1-.6,8.237,8.237,0,0,1-.974-.775,6.441,6.441,0,0,1-1.837-4.486,6.818,6.818,0,0,1,.125-1.25,5.558,5.558,0,0,1,.362-1.174,5.077,5.077,0,0,1,.575-1.1,10.228,10.228,0,0,1,.775-.975A7.226,7.226,0,0,1,283.829,120.315Zm-5.31-9.435a2.335,2.335,0,0,1,2.074-.624,2.769,2.769,0,0,1,.425.137,2.41,2.41,0,0,1,.4.2,3.99,3.99,0,0,1,.337.287,2.289,2.289,0,1,1-3.236,0Zm-1.025,11.672a3.037,3.037,0,0,1-6.073.015v-.015a3.05,3.05,0,0,1,.874-2.137,3.086,3.086,0,0,1,2.75-.837,2.927,2.927,0,0,1,.562.175,4.311,4.311,0,0,1,.537.275,4.478,4.478,0,0,1,.45.387A3.08,3.08,0,0,1,277.494,122.552Z" fill="#04294f"/><path d="M281.505,123.177a5.558,5.558,0,0,0-.362,1.174,6.818,6.818,0,0,0-.125,1.25,6.441,6.441,0,0,0,1.837,4.486,8.237,8.237,0,0,0,.974.775,7.235,7.235,0,0,0,1.1.6,8.084,8.084,0,0,0,1.187.362,6.227,6.227,0,0,0,2.5,0,8.084,8.084,0,0,0,1.187-.362,7.275,7.275,0,0,0,2.074-1.375,6.464,6.464,0,0,0,1.85-4.486,5.9,5.9,0,0,0-.125-1.25,6.354,6.354,0,0,0-.363-1.174,5.752,5.752,0,0,0-.587-1.1,5.688,5.688,0,0,0-1.75-1.762,7.108,7.108,0,0,0-1.1-.587,8.211,8.211,0,0,0-1.187-.363,6.866,6.866,0,0,0-2.5,0,8.211,8.211,0,0,0-1.187.363,6.607,6.607,0,0,0-2.074,1.374,10.228,10.228,0,0,0-.775.975A5.077,5.077,0,0,0,281.505,123.177Z" fill="#fff"/><path d="M280.143,114.792a2.288,2.288,0,0,0,1.612-3.912,3.99,3.99,0,0,0-.337-.287,2.41,2.41,0,0,0-.4-.2,2.769,2.769,0,0,0-.425-.137,2.335,2.335,0,0,0-2.074.624,2.311,2.311,0,0,0,0,3.237A2.334,2.334,0,0,0,280.143,114.792Z" fill="#fff"/><path d="M275.607,119.753a2.915,2.915,0,0,0-.563-.175A3.039,3.039,0,0,0,272.3,124.7a3.036,3.036,0,1,0,4.427-4.157c-.041-.044-.084-.087-.128-.129a4.478,4.478,0,0,0-.45-.387A4.311,4.311,0,0,0,275.607,119.753Z" fill="#fff"/><path d="M284.817,137.5a3.781,3.781,0,0,0-.5-.263,4.19,4.19,0,0,0-.525-.162,2.812,2.812,0,0,0-3.324,2.761,2.824,2.824,0,1,0,4.811-1.986A3.642,3.642,0,0,0,284.817,137.5Z" fill="#fff"/><path d="M205.3,160.866a21.044,21.044,0,1,0-21.031-21.057v.013A21.044,21.044,0,0,0,205.3,160.866Zm9.073-7.5a2.828,2.828,0,1,1-1.438-4.774,5.059,5.059,0,0,1,.525.163,3.752,3.752,0,0,1,.488.262,3.1,3.1,0,0,1,.425.35,2.9,2.9,0,0,1,0,4.074Zm-1.437-21.456a6.629,6.629,0,0,1,1.1-.588,7.327,7.327,0,0,1,1.25-.362,6.86,6.86,0,0,1,2.5,0,7.528,7.528,0,0,1,1.175.362,6.629,6.629,0,0,1,1.1.588,5.906,5.906,0,0,1,.975.787,6.622,6.622,0,0,1,1.375,2.074,7.422,7.422,0,0,1,.362,1.175,5.9,5.9,0,0,1,.125,1.25,6.409,6.409,0,0,1-1.862,4.486,7.279,7.279,0,0,1-2.074,1.375,7.528,7.528,0,0,1-1.175.362,6.989,6.989,0,0,1-1.25.125,6.808,6.808,0,0,1-1.249-.125,7.327,7.327,0,0,1-1.25-.362,6.649,6.649,0,0,1-1.1-.6,8.373,8.373,0,0,1-.975-.775,6.445,6.445,0,0,1-1.837-4.486,5.9,5.9,0,0,1,.125-1.25,4.409,4.409,0,0,1,.362-1.175,5.7,5.7,0,0,1,.563-1.1,8.473,8.473,0,0,1,.787-.975A7.235,7.235,0,0,1,212.938,131.912Zm-5.311-9.435a2.324,2.324,0,0,1,2.061-.625,1.853,1.853,0,0,1,.425.138,2.371,2.371,0,0,1,.4.2,4.014,4.014,0,0,1,.35.287,2.287,2.287,0,1,1-3.236,0Zm-6.249,9.535a3.089,3.089,0,0,1,2.75-.838,3.693,3.693,0,0,1,.562.175,4.369,4.369,0,0,1,.525.275,4.889,4.889,0,0,1,.462.388,3.041,3.041,0,1,1-4.3,0Z" fill="#04294f"/><path d="M210.651,134.773a4.448,4.448,0,0,0-.363,1.175,5.9,5.9,0,0,0-.125,1.25A6.454,6.454,0,0,0,212,141.684a8.373,8.373,0,0,0,.975.775,6.658,6.658,0,0,0,1.1.6,7.342,7.342,0,0,0,1.249.362,6.81,6.81,0,0,0,1.25.125,7,7,0,0,0,1.25-.125,7.549,7.549,0,0,0,1.174-.362,7.284,7.284,0,0,0,2.075-1.375,6.413,6.413,0,0,0,1.862-4.486,5.9,5.9,0,0,0-.125-1.25,7.531,7.531,0,0,0-.363-1.175,6.619,6.619,0,0,0-1.374-2.074,5.948,5.948,0,0,0-.975-.787,6.6,6.6,0,0,0-1.1-.588,7.549,7.549,0,0,0-1.174-.362,6.866,6.866,0,0,0-2.5,0,7.342,7.342,0,0,0-1.249.362,6.6,6.6,0,0,0-1.1.588,7.3,7.3,0,0,0-.975.787,8.692,8.692,0,0,0-.787.975A5.7,5.7,0,0,0,210.651,134.773Z" fill="#fff"/><path d="M209.289,126.388a2.287,2.287,0,0,0,1.612-3.911,4.336,4.336,0,0,0-.35-.287,2.41,2.41,0,0,0-.4-.2,1.869,1.869,0,0,0-.425-.138,2.326,2.326,0,0,0-2.062.625,2.3,2.3,0,0,0,1.625,3.911Z" fill="#fff"/><path d="M203.59,137.2a3.037,3.037,0,0,0,2.15-5.186,4.9,4.9,0,0,0-.463-.388,4.223,4.223,0,0,0-.525-.275,3.659,3.659,0,0,0-.562-.175,3.088,3.088,0,0,0-2.749.838,3.049,3.049,0,0,0,2.149,5.186Z" fill="#fff"/><path d="M213.95,149.094a3.752,3.752,0,0,0-.488-.262,5.042,5.042,0,0,0-.524-.163,2.813,2.813,0,0,0-3.318,2.193,2.86,2.86,0,0,0-.057.569,2.825,2.825,0,0,0,4.812,2.012,2.807,2.807,0,0,0,0-4A3.1,3.1,0,0,0,213.95,149.094Z" fill="#fff"/><circle cx="182.459" cy="176.149" r="10.859" fill="#f04e23"/><circle cx="293.702" cy="160.891" r="8.56" fill="#f04e23"/><path d="M262.073,174.062a4.175,4.175,0,0,0-.762-1.574,4.31,4.31,0,0,0-6.042-.817l-.006,0-.925.713a13.959,13.959,0,0,1-3.287,2.086,1.063,1.063,0,0,1-.474.125.579.579,0,0,1-.325,0c-.163,0-.213-.087-.225,0a1.689,1.689,0,0,1-.937.238,13.771,13.771,0,0,1-3.749-.662l-1.25-.325a4.717,4.717,0,0,0-1.837-.075,4.486,4.486,0,0,0-3.674,5.148,10.961,10.961,0,0,0,4.336,6.886,12.174,12.174,0,0,0,17.908-3.749A10.936,10.936,0,0,0,262.073,174.062Z" fill="#04294f"/><path d="M345.5,545.2c1.187-2.249-8.46-9.672-21.544-16.582s-24.643-10.7-25.83-8.448V520.1c-.425,1.35-.874,2.662-1.324,3.987-.8,2.336-1.637,4.661-2.5,6.923-.275.712-.574,1.4-.862,2.086l.325.088c4.7,1.674,11.934,5,22.956,11.572,10.109,6.01,16.17,10.759,19.807,14.308a3.29,3.29,0,0,1,.475.637c1.087-1.649,2.161-3.324,3.174-5,1.137-1.9,2.224-3.824,3.3-5.749.7-1.249,1.387-2.5,2.049-3.749Z" fill="#ffb400"/><path d="M316.657,544.755c-11.021-6.561-18.257-9.9-22.955-11.572l-.325-.087a2.174,2.174,0,0,0-2.4,1.249c-1.249,2.924-2.649,5.711-4.086,8.435a6.667,6.667,0,0,1,1.25.163c3.749.924,10.772,3.636,23.493,11.246,12.159,7.236,17.682,12.384,20.194,15.646,1.75-2.362,3.449-4.724,5-7.123a2.851,2.851,0,0,0,.087-3,3.287,3.287,0,0,0-.475-.638C332.9,555.514,326.792,550.753,316.657,544.755Z" fill="#fff"/><path d="M311.659,554.177c-12.721-7.573-19.744-10.285-23.493-11.247a6.874,6.874,0,0,0-6.086,1.575c-1.25,1.137-2.437,2.324-3.586,3.524-1.8,1.862-3.487,3.749-5.136,5.773s-3.2,3.986-4.649,6.073c-.687.95-1.587,2.387-2.374,3.674a3.75,3.75,0,0,0,.824,4.849c7.786,6.323,32.966,25.8,64.094,40.1,0,0,2.812,1.249,5.261-2.787,1.887-3.074,2.987-4.711-.075-12.146a.791.791,0,0,1-.275-.088h0c-1.912-1.137-3.749-2.349-5.573-3.486s-3.611-2.3-5.423-3.412-3.612-2.224-5.424-3.386a50.859,50.859,0,0,1-5.373-3.962h0a.637.637,0,0,1-.024-.9l.024-.023a.705.705,0,0,1,.462-.225,19.145,19.145,0,0,1,6.911,1.187,26.963,26.963,0,0,1,6.248,3.149,31.839,31.839,0,0,1,5.336,4.436l.387.437c-.7-1.424-1.487-2.974-2.374-4.673h0c.125-.325.262-.625.375-.95.275-.7.525-1.4.774-2.1-1.762-1.075-3.474-2.187-5.173-3.237s-3.612-2.312-5.424-3.424-3.611-2.224-5.423-3.386a48.04,48.04,0,0,1-5.373-3.962h0a.662.662,0,0,1,0-.936h0a.625.625,0,0,1,.462-.212,18.866,18.866,0,0,1,6.91,1.174,27.26,27.26,0,0,1,6.186,3.162,32.848,32.848,0,0,1,5.336,4.436,26.29,26.29,0,0,1,3.3,4.186l.3-.937a6.707,6.707,0,0,0-.8-5.648c-.2-.3-.425-.613-.687-.938C329.316,566.561,323.793,561.412,311.659,554.177Zm-19.27,10.547c-3.1,4.648-8.435,6.535-11.946,4.211s-3.849-7.985-.75-12.634,8.423-6.548,11.934-4.211,3.787,7.985.737,12.634Z" fill="#f04e23"/><path d="M324.38,568.723a27.219,27.219,0,0,0-6.186-3.162,18.867,18.867,0,0,0-6.91-1.175.626.626,0,0,0-.462.213.662.662,0,0,0,0,.936h0A48.031,48.031,0,0,0,316.2,569.5c1.812,1.163,3.612,2.287,5.423,3.387s3.612,2.262,5.424,3.424,3.411,2.162,5.173,3.237l.388.237h.062a.787.787,0,0,0,1.1-1.012c-.25-.513-.525-1-.812-1.475a26.347,26.347,0,0,0-3.3-4.186A32.86,32.86,0,0,0,324.38,568.723Z" fill="#04294f"/><path d="M327.792,582.406a27,27,0,0,0-6.248-3.149,19.145,19.145,0,0,0-6.911-1.187.71.71,0,0,0-.462.225.637.637,0,0,0-.024.9l.024.024h0a50.99,50.99,0,0,0,5.373,3.961c1.812,1.162,3.612,2.287,5.424,3.386s3.611,2.262,5.423,3.412,3.661,2.349,5.573,3.486h0a.791.791,0,0,0,.275.088.748.748,0,0,0,.463,0,.787.787,0,0,0,.362-1.05,22.144,22.144,0,0,0-3.749-5.223l-.387-.438A31.89,31.89,0,0,0,327.792,582.406Z" fill="#04294f"/><ellipse cx="282.4" cy="559.384" rx="10.066" ry="7.59" transform="matrix(0.552, -0.834, 0.834, 0.552, -339.89, 485.798)" fill="#fff"/><path d="M18.731,498.868c-4.873-.5-9.135,2.049-9.509,5.723s3.249,7.061,8.11,7.561,9.135-2.05,9.522-5.711S23.592,499.38,18.731,498.868Z" fill="#fff"/><path d="M263.073,436.186a25.062,25.062,0,0,0,11.372,3.487,10.326,10.326,0,0,0,7.223-2.637,7.275,7.275,0,0,0,1.887-8.91c-2.6-5.074-12.5-9.535-31.9-5.573-17.57-.638-29.566,3.349-32.09,10.659a7.835,7.835,0,0,0,3.2,9.06,10.65,10.65,0,0,0,6.423,2.112c7.423,0,15.27-7.061,20.081-12.3v.688a49.865,49.865,0,0,1-1.187,7.5,29.96,29.96,0,0,1-2.5,6.948,16.894,16.894,0,0,1-4.549,5.549h0a1.449,1.449,0,0,0,1.612,2.4,18.736,18.736,0,0,0,6.249-6.023,24.412,24.412,0,0,0,2.049-3.749,30.4,30.4,0,0,0,1.487-3.961,46.315,46.315,0,0,0,1.687-8.173c.1-.812.175-1.625.238-2.5.3.35.587.712.874,1.074a32.835,32.835,0,0,1,3.6,5.924,34.436,34.436,0,0,1,2.4,6.573,45.371,45.371,0,0,1,1.249,7.048h0a1.512,1.512,0,0,0,3.012,0,35.16,35.16,0,0,0-.238-7.848A33.913,33.913,0,0,0,263.073,436.186Zm-37.4,1.987a2.923,2.923,0,0,1-1.4-3.374c.9-2.587,6.748-7.11,22.393-7.348-5.561,6.323-15.17,14.946-20.994,10.722Zm53.5-7.81a2.323,2.323,0,0,1-.837,2.936c-4.461,4.112-14.433-1.924-20.694-6.76C270.858,424.689,277.694,427.614,279.168,430.363Z" fill="#ffb400"/><path d="M269.171,38.589a50.555,50.555,0,0,0,6.6-.475,58.988,58.988,0,0,0,6.523-1.25,40.207,40.207,0,0,0,6.436-2.174l1.012-.475a30.313,30.313,0,0,1-1.337,4.024,23.269,23.269,0,0,1-2.387,4.324,33.993,33.993,0,0,1-3.274,4h0a.639.639,0,0,0-.112.65.65.65,0,0,0,.825.35,17.259,17.259,0,0,0,4.9-2.936,24.778,24.778,0,0,0,2.075-2.05,23.256,23.256,0,0,0,1.724-2.387,21.481,21.481,0,0,0,2.5-5.336,26.693,26.693,0,0,0,.688-2.874,19.1,19.1,0,0,0,.3-3.074,2.481,2.481,0,0,0-4.3-1.712h0a17.5,17.5,0,0,1-4.574,3.112,61.245,61.245,0,0,1-5.648,2.5c-3.924,1.512-8.01,2.837-12.084,4.274h0a.762.762,0,0,0,.25,1.487Z" fill="#04294f"/><path d="M187.507,75.341a29.744,29.744,0,0,0,4.487-.588,33.191,33.191,0,0,0,4.373-1.249,29.109,29.109,0,0,0,4.262-1.75h0v.425a22.626,22.626,0,0,1-.988,4.536,20.68,20.68,0,0,1-2.012,4.262,27.582,27.582,0,0,1-3.1,3.923h0a.625.625,0,0,0,.675,1.025,14.966,14.966,0,0,0,4.811-2.912,21.344,21.344,0,0,0,1.975-2.136,17.534,17.534,0,0,0,1.574-2.5,20.023,20.023,0,0,0,2.187-8.435,17.3,17.3,0,0,0-.125-3.061,2.59,2.59,0,0,0-.5-1.25,2.5,2.5,0,0,0-3.461-.425h0a57.911,57.911,0,0,1-6.923,4.374L190.994,71.6c-1.25.688-2.574,1.35-3.849,2.125a.772.772,0,0,0-.387.7.786.786,0,0,0,.651.9A.835.835,0,0,0,187.507,75.341Z" fill="#04294f"/><path d="M245.978,54.784a25.938,25.938,0,0,0,5.511,1.575,45.541,45.541,0,0,0,5.661.587c1.574.075,3.136,0,4.7,0l-12.8,10.434a2.347,2.347,0,0,0-.737,1.013,2.4,2.4,0,0,0,1.4,3.086h0a34.838,34.838,0,0,0,9.423,2.012,65.862,65.862,0,0,0,9.3,0c3.062-.175,6.111-.475,9.122-.937l1.575-.275c-1.737,1.6-3.537,3.137-5.374,4.624s-3.873,2.974-5.9,4.336a71.414,71.414,0,0,1-6.248,3.861h0a.749.749,0,0,0-.362.9.773.773,0,0,0,.962.487,51.042,51.042,0,0,0,7.01-2.961,71.749,71.749,0,0,0,6.573-3.812,69.788,69.788,0,0,0,6.174-4.473c1.986-1.587,3.9-3.287,5.723-5.061a2.262,2.262,0,0,0-2.037-3.837h-.113c-2.8.563-5.748,1.025-8.647,1.375s-5.823.662-8.748.8a70.869,70.869,0,0,1-8.622-.1,36.457,36.457,0,0,1-3.911-.475l5.2-4.486c2.912-2.5,5.761-5,8.623-7.673l.075-.063a2,2,0,0,0-1.787-3.411c-1.687.362-3.512.675-5.286.95s-3.574.474-5.374.624-3.6.2-5.4.175a30.631,30.631,0,0,1-5.336-.55h0a.626.626,0,0,0-.7.375.6.6,0,0,0,.186.828A.616.616,0,0,0,245.978,54.784Z" fill="#04294f"/></g></g>
        </g>
    </g>
</g>

<!-- ITEM 2 -->
<g>
    <defs>
        
        <clipPath id="clip-path-id-viewbox-item-2">
            <rect x="0.0" y="0.0" width="393.167" height="166.073"/>
        </clipPath>
    </defs>
    <g transform="translate(1347.0 459.0) rotate(23.22049401784421 -290.0 122.0) scale(-1.475200105807456 1.469233409404298)">
        <g clip-path="url(#clip-path-id-viewbox-item-2)" transform="translate(-0.0 -0.0)">
<title>graduation_cap</title><g id="Layer_2-i2" data-name="Layer 2"><g id="graduation_cap-i2"><path d="M383.344,83.879c14.32,7.549,10.021,17.536,5.5,21.581A6.488,6.488,0,0,0,387.2,95.05c-47.766-24.306-114.421-70.413-131.94-82.684a6.511,6.511,0,0,0-8.142.559c-35.9,33.226-101.134,69.752-125.457,82.836a6.558,6.558,0,0,0-1.032,10.816c-7.481-5.247-13.592-16.435-2.844-22s30.061-16.249,51.05-29.147c3.6-2.217,7.278-4.5,10.951-6.855C202.556,34.1,226.2,17.5,243.246,1.7a6.487,6.487,0,0,1,8.108-.524C268.906,13.517,335.765,59.251,383.344,83.879Z" fill="#fff"/><path d="M387.254,95.1C339.489,70.8,272.833,24.688,255.315,12.417a6.511,6.511,0,0,0-8.142.558C211.273,46.2,146.039,82.728,121.716,95.812a6.559,6.559,0,0,0-1.032,10.816l.44.44c17.417,11.764,63.388,36.117,75.659,43.446,20.613-.611,115.994-.356,118.888,0,18.636-10.342,61.377-35.051,72.853-44.665a4.322,4.322,0,0,0,.406-.406A6.487,6.487,0,0,0,387.254,95.1Z" fill="#04294f"/><path d="M179.841,48.622c-3.673,2.353-7.346,4.638-10.951,6.855C118.009,7.677,59.157,135.318,0,90.65c12.745,2.589,24.712-6.229,24.712-6.229C9.851,76.093,3.25,59.573,3.25,59.573,58.006,99.705,119.414-11.8,179.841,48.622Z" fill="#ffb400"/><path d="M186.814,114.736a62.292,62.292,0,0,1-1.337-13.017,61.41,61.41,0,0,1,.237-6.533,10.261,10.261,0,0,1,.271-1.862,8.168,8.168,0,0,1,.694-2.116,9.365,9.365,0,0,1,1.016-1.862,10.2,10.2,0,0,1,1.269-1.608,22.646,22.646,0,0,1,5.823-4.536,55.95,55.95,0,0,1,6.195-2.979,89.29,89.29,0,0,1,12.694-3.961A187.682,187.682,0,0,1,239.3,72.1c4.3-.406,8.581-.727,12.9-.947s8.65-.22,13.084-.051a146.214,146.214,0,0,1,26,3.859,127.973,127.973,0,0,1,24.932,8.412,51.871,51.871,0,0,1,11.7,7.431,21.08,21.08,0,0,1,4.858,6.009c.305.609.575,1.286.829,1.946a20.584,20.584,0,0,1,.559,2.116c.186,1.134.338,2.268.423,3.4a64.848,64.848,0,0,1-3.859,25.965,1.292,1.292,0,0,1-1.627.834l-.015-.005a1.34,1.34,0,0,1-.982-1.32h0a82.916,82.916,0,0,0-.406-24.441c-.186-.965-.44-1.9-.626-2.759l-.372-.914-.542-.914a15.418,15.418,0,0,0-3.47-3.47,44.586,44.586,0,0,0-10.19-5.315A150.884,150.884,0,0,0,288.93,85.3c-4.011-.863-8.091-1.625-12.136-2.251a108.111,108.111,0,0,0-12.085-1.456,264.227,264.227,0,0,0-49.323,3.148,103.974,103.974,0,0,0-11.832,2.725,45.335,45.335,0,0,0-5.433,2.048,19.161,19.161,0,0,0-4.5,2.776,5.87,5.87,0,0,0-.8.8,2.831,2.831,0,0,0-.609.846,2.388,2.388,0,0,0-.406.847,4.794,4.794,0,0,0-.322,1.235c-.406,2-.694,4.079-1.015,6.06a74.526,74.526,0,0,0-.525,12.3h0a1.58,1.58,0,0,1-1.569,1.591h-.022A1.6,1.6,0,0,1,186.814,114.736Z" fill="#fff"/><rect x="190.799" y="118.199" width="136.442" height="47.875" rx="5.667" fill="#04294f"/></g></g>
        </g>
    </g>
</g>

<!-- ITEM 3 -->
<g>
    <defs>
        
        <clipPath id="clip-path-id-viewbox-item-3">
            <rect x="0.0" y="0.0" width="296.312" height="417.5"/>
        </clipPath>
    </defs>
    <g transform="translate(399.0 448.0) rotate(12.53469416961652 166.0 234.5) scale(1.1204406166473178 1.1233532934131736)">
        <g clip-path="url(#clip-path-id-viewbox-item-3)" transform="translate(-0.0 -0.0)">
<title>form_document</title><g id="Layer_2-i3" data-name="Layer 2"><g id="form_document-i3"><path d="M196.8,135.618l42.6,19.5s7.5-19.869-10.431-30.333S196.8,135.618,196.8,135.618Z" fill="#10294c"/><path d="M227.107,127.2h0c-7.6-3.2-17.1-1.6-23.8,4.1a24.958,24.958,0,0,0-3.2,3.3l37.5,17.3C239.607,140,235.807,130.9,227.107,127.2Z" fill="none"/><path d="M229.007,122.6h0L71.707,50.1c-.1,0-.2-.1-.3-.1-9.4-3-20.3-.4-27.8,6.6-5.5,5.2-13.9,17.3-8.3,39.9.4,3.2,5.7,52.9,5.7,106.1,0,54.6-5.6,93.9-5.7,94.3-4,26.1-31.9,28.6-33.1,28.7a2.443,2.443,0,0,0-2.2,2.6,2.471,2.471,0,0,0,1.4,2l146.9,68a3.553,3.553,0,0,0,1,.2,1.268,1.268,0,0,0,.6-.1c1.1-.3,26.3-7.3,37.5-23.2,11.6-16.3,18.2-37.2,18.2-95.7,0-75.8-9.7-110.2-10.3-112.2-3.3-13.5-1.3-22.7,1.9-28.7l41,18.9a1.8,1.8,0,0,0,1,.2,2.459,2.459,0,0,0,2.2-1.4,2.959,2.959,0,0,0,.2-1C245.407,139.9,240.707,127.7,229.007,122.6Zm-79.5,270.8L10.207,329c10-2.8,26.7-10.5,29.9-31.4.1-.4,5.7-40,5.7-95s-5.7-106.3-5.7-106.8a.367.367,0,0,0-.1-.3c-3.8-15.1-1.3-27.6,6.9-35.3a23.636,23.636,0,0,1,22.8-5.6l143.9,66.3a28.254,28.254,0,0,0-13.6,6.5c-10.3,8.7-13.7,23.7-9.4,41v.1c.1.3,10.1,35.2,10.1,110.9,0,57.2-6.4,77.3-17.3,92.9C174.307,385.3,153.907,392.1,149.507,393.4Zm53.8-262.2c6.7-5.7,16.2-7.3,23.7-4.1h.1c8.7,3.8,12.5,12.9,10.4,24.6l-37.5-17.3A24.958,24.958,0,0,1,203.307,131.2Z" fill="#00acdc"/><polygon points="67.307 180.7 170.007 228.7 170.007 212 67.307 164 67.307 180.7" fill="#10294c"/><path d="M200.807,279.5c0-75.8-10-110.6-10.1-110.9v-.1c-4.3-17.4-.9-32.3,9.4-41a29.021,29.021,0,0,1,13.6-6.4L69.807,54.7a23.636,23.636,0,0,0-22.8,5.6c-8.2,7.7-10.7,20.2-6.9,35.3a.367.367,0,0,0,.1.3c.1.5,5.7,51.9,5.7,106.8s-5.7,94.6-5.7,95c-3.2,20.8-19.9,28.6-30,31.4l139.3,64.3c4.4-1.3,24.8-8.1,34-21.1C194.507,356.8,200.807,336.7,200.807,279.5Zm-60.1,75.3a2.609,2.609,0,0,1-1.1,2.1,2.836,2.836,0,0,1-1.3.4,4.253,4.253,0,0,1-1.1-.2l-44-21.2a2.58,2.58,0,0,1-1.4-2.2V303.2a2.433,2.433,0,0,1,2.4-2.4,4.253,4.253,0,0,1,1.1.2l44,21.2a2.58,2.58,0,0,1,1.4,2.2Zm34.2-40.8a2.433,2.433,0,0,1-2.4,2.4,2.959,2.959,0,0,1-1-.2l-107.7-50.3a2.4,2.4,0,0,1-1.4-2.2V241.6a2.433,2.433,0,0,1,2.4-2.4,2.959,2.959,0,0,1,1,.2l107.7,50.3a2.4,2.4,0,0,1,1.4,2.2Zm0-40.3a2.609,2.609,0,0,1-1.1,2.1,2.2,2.2,0,0,1-1.3.4,2.959,2.959,0,0,1-1-.2l-107.7-50.3a2.4,2.4,0,0,1-1.4-2.2V201.4a2.433,2.433,0,0,1,2.4-2.4,2.959,2.959,0,0,1,1,.2l107.7,50.2a2.4,2.4,0,0,1,1.4,2.2Zm0-41.1a2.433,2.433,0,0,1-2.4,2.4,2.959,2.959,0,0,1-1-.2l-107.7-50.2a2.4,2.4,0,0,1-1.4-2.2V160.2a2.433,2.433,0,0,1,2.4-2.4,2.959,2.959,0,0,1,1,.2l107.7,50.3a2.4,2.4,0,0,1,1.4,2.2Z" fill="#10294c"/><polygon points="67.307 221.9 170.007 269.9 170.007 253.2 67.307 205.2 67.307 221.9" fill="#10294c"/><polygon points="67.307 262.2 170.007 310.2 170.007 293.5 67.307 245.5 67.307 262.2" fill="#10294c"/><path d="M173.507,208.3,65.807,158a2.378,2.378,0,0,0-3.2,1.2,1.8,1.8,0,0,0-.2,1v22.1a2.4,2.4,0,0,0,1.4,2.2l107.7,50.3a3.553,3.553,0,0,0,1,.2,2.433,2.433,0,0,0,2.4-2.4V210.5A2.3,2.3,0,0,0,173.507,208.3Zm-3.5,20.4-102.8-48V164l102.8,48Z" fill="#00acdc"/><path d="M173.507,249.4l-107.7-50.3a2.378,2.378,0,0,0-3.2,1.2,1.8,1.8,0,0,0-.2,1v22.1a2.4,2.4,0,0,0,1.4,2.2l107.7,50.3a1.8,1.8,0,0,0,1,.2,2.01,2.01,0,0,0,1.3-.4,2.476,2.476,0,0,0,1.1-2.1V251.5A2.26,2.26,0,0,0,173.507,249.4Zm-3.5,20.5-102.8-48V205.2l102.8,48Z" fill="#00acdc"/><path d="M173.507,289.7l-107.7-50.3a2.378,2.378,0,0,0-3.2,1.2,1.8,1.8,0,0,0-.2,1v22.1a2.4,2.4,0,0,0,1.4,2.2l107.6,50.3a2.378,2.378,0,0,0,3.2-1.2,1.8,1.8,0,0,0,.2-1V291.9A2.16,2.16,0,0,0,173.507,289.7Zm-3.5,20.5-102.8-48V245.5l102.8,48Z" fill="#00acdc"/><path d="M139.307,322.2l-44-21.2a2.482,2.482,0,0,0-3.3,1.1,1.978,1.978,0,0,0-.2,1.1v30.4a2.4,2.4,0,0,0,1.4,2.2l44,21.2a1.978,1.978,0,0,0,1.1.2,2.01,2.01,0,0,0,1.3-.4,2.356,2.356,0,0,0,1.1-2.1V324.2A2.624,2.624,0,0,0,139.307,322.2Z" fill="#00acdc"/><path d="M130.107,344.3a4.253,4.253,0,0,1-1.1-.2l-27.7-13.3a2.58,2.58,0,0,1-1.4-2.2V316.2a2.433,2.433,0,0,1,2.4-2.4,4.253,4.253,0,0,1,1.1.2l27.7,13.3a2.58,2.58,0,0,1,1.4,2.2v12.4a2.609,2.609,0,0,1-1.1,2.1A3.079,3.079,0,0,1,130.107,344.3Zm-25.3-17.3,22.8,11v-6.9l-22.8-11Z" fill="#10294c"/><polygon points="126.707 197.6 75.007 173.5 75.007 178.9 126.707 203 126.707 197.6" fill="#ffb400"/><polygon points="133.207 200.6 133.207 206 161.807 219.4 161.807 214 133.207 200.6" fill="#ffb400"/><polygon points="93.007 228.3 93.007 222.9 75.007 214.6 75.007 220 93.007 228.3" fill="#ffb400"/><polygon points="126.707 238.7 99.507 226 99.507 231.4 126.707 244.1 126.707 238.7" fill="#ffb400"/><polygon points="133.207 241.7 133.207 247.1 141.107 250.8 141.107 245.4 133.207 241.7" fill="#ffb400"/><ellipse cx="118.607" cy="130.8" rx="18.5" ry="28.9" fill="#10294c"/><path d="M118.607,164.6c12.9,0,23.4-15.2,23.4-33.8s-10.5-33.8-23.4-33.8-23.4,15.2-23.4,33.8S105.807,164.6,118.607,164.6Zm0-62.7c10.2,0,18.5,13,18.5,28.9s-8.3,28.9-18.5,28.9-18.5-13-18.5-28.9S108.507,101.9,118.607,101.9Z" fill="#00acdc"/><ellipse cx="118.607" cy="130.8" rx="9.7" ry="14.6" fill="#ffb400"/><path d="M110.407,1.1a2.57,2.57,0,0,0-1.7-1.1h-.1c-1.3.1-2.7,2.6-2.6,5.7.2,3.1,1.8,5.4,3.2,5.4,1.3,0,2.7-2.6,2.6-5.7A7.6,7.6,0,0,0,110.407,1.1Z" fill="none"/><path d="M293.607,119.5c1.3-.1,2.7-2.6,2.6-5.7-.2-3.1-1.8-5.4-3.1-5.4h-.1c-.8,0-1.4,1-1.6,1.3a7.962,7.962,0,0,0-.9,4.3C290.607,117.2,292.307,119.6,293.607,119.5Z" fill="none"/><path d="M293.107,406.5h0c-.9,0-1.5,1-1.7,1.3a7.962,7.962,0,0,0-.9,4.3c.2,3.1,1.8,5.4,3.1,5.4h.1c1.3-.1,2.7-2.6,2.6-5.7C296.007,408.8,294.407,406.5,293.107,406.5Z" fill="none"/></g></g>
        </g>
    </g>
</g>

              </svg>